<?xml version="1.0" encoding="UTF-8" standalone="no"?>
<!DOCTYPE svg PUBLIC "-//W3C//DTD SVG 1.1//EN" "http://www.w3.org/Graphics/SVG/1.1/DTD/svg11.dtd">
<svg width="100%" height="100%" viewBox="0 0 48 48" version="1.1" xmlns="http://www.w3.org/2000/svg" xmlns:xlink="http://www.w3.org/1999/xlink" xml:space="preserve" xmlns:serif="http://www.serif.com/" style="fill-rule:evenodd;clip-rule:evenodd;stroke-linecap:round;stroke-linejoin:round;">
    <g id="Open">
        <path id="path2375" d="M4.62,38.651C4.662,39.071 5.117,39.492 5.531,39.492L36.667,39.492C37.081,39.492 37.453,39.071 37.411,38.651L34.715,11.532C34.673,11.111 34.217,10.691 33.803,10.691L21.08,10.691C20.49,10.691 19.871,10.311 19.677,9.73L18.574,6.425C18.405,5.917 18.027,5.689 17.26,5.689L2.322,5.689C1.909,5.689 1.537,6.109 1.578,6.53L4.62,38.651Z" style="fill:url(#_Radial1);fill-rule:nonzero;stroke:rgb(90,90,90);stroke-width:1px;"/>
        <path id="path13113" d="M3.339,17.533L34.488,17.533" style="fill:none;fill-rule:nonzero;stroke:black;stroke-opacity:0.11;stroke-width:1px;"/>
        <path id="path13160" d="M5.33,37.533L35.318,37.533" style="fill:none;fill-rule:nonzero;stroke:black;stroke-opacity:0.11;stroke-width:1px;"/>
        <path id="path13139" d="M5.33,35.533L35.318,35.533" style="fill:none;fill-rule:nonzero;stroke:black;stroke-opacity:0.11;stroke-width:1px;"/>
        <g id="g5022" transform="matrix(0.0216515,0,0,0.0190384,42.4154,36.9337)">
            <rect id="rect4173" x="-1559.25" y="-150.697" width="1339.63" height="478.357" style="fill:url(#_Linear2);"/>
            <path id="path5058" d="M-219.619,-150.68L-219.619,327.65C-76.745,328.551 125.781,220.481 125.781,88.454C125.781,-43.572 -33.655,-150.68 -219.619,-150.68Z" style="fill:url(#_Radial3);fill-rule:nonzero;"/>
            <path id="path5018" d="M-1559.25,-150.68L-1559.25,327.65C-1702.13,328.551 -1904.65,220.481 -1904.65,88.454C-1904.65,-43.572 -1745.22,-150.68 -1559.25,-150.68Z" style="fill:url(#_Radial4);fill-rule:nonzero;"/>
        </g>
        <path id="path2380" d="M6.172,38.419C6.203,38.729 6.017,38.936 5.696,38.832C5.376,38.729 5.148,38.522 5.116,38.212L2.087,6.845C2.056,6.534 2.243,6.347 2.554,6.347L17.304,6.255C17.835,6.252 18.043,6.309 18.183,6.773C18.183,6.773 19.269,9.885 19.43,10.471L17.874,7.554C17.609,7.056 17.275,7.14 16.901,7.14L3.772,7.14C3.461,7.14 3.275,7.347 3.307,7.657L6.286,38.522L6.172,38.419Z" style="fill:url(#_Linear5);fill-rule:nonzero;"/>
        <path id="path13145" d="M2.305,7.533L17.089,7.533" style="fill:none;fill-rule:nonzero;stroke:black;stroke-opacity:0.11;stroke-width:1px;"/>
        <path id="path13115" d="M2.757,11.533L33.496,11.533" style="fill:none;fill-rule:nonzero;stroke:black;stroke-opacity:0.11;stroke-width:1px;"/>
        <g id="g2381" transform="matrix(1.03442,0,0.10452,1.03442,-10.0325,2.63191)">
            <path id="path2382" d="M41.786,9.036C41.795,8.562 41.801,8.312 41.362,8.312L28.807,8.321C28.507,8.321 28.482,8.178 28.807,8.321C29.131,8.464 30.054,8.979 30.989,9.022C30.989,9.022 41.786,9.038 41.786,9.036Z" style="fill:white;fill-opacity:0.58;fill-rule:nonzero;"/>
        </g>
        <path id="path13123" d="M3.163,15.533L33.993,15.533" style="fill:none;fill-rule:nonzero;stroke:black;stroke-opacity:0.11;stroke-width:1px;"/>
        <path id="path13121" d="M5.159,33.533L35.147,33.533" style="fill:none;fill-rule:nonzero;stroke:black;stroke-opacity:0.11;stroke-width:1px;"/>
        <path id="path13119" d="M4.866,31.533L34.975,31.533" style="fill:none;fill-rule:nonzero;stroke:black;stroke-opacity:0.11;stroke-width:1px;"/>
        <path id="path13135" d="M4.634,29.533L34.803,29.533" style="fill:none;fill-rule:nonzero;stroke:black;stroke-opacity:0.11;stroke-width:1px;"/>
        <path id="path13137" d="M4.463,27.533L34.632,27.533" style="fill:none;fill-rule:nonzero;stroke:black;stroke-opacity:0.11;stroke-width:1px;"/>
        <path id="path13143" d="M4.256,25.533L34.461,25.533" style="fill:none;fill-rule:nonzero;stroke:black;stroke-opacity:0.11;stroke-width:1px;"/>
        <path id="path13133" d="M4.024,23.533L34.289,23.533" style="fill:none;fill-rule:nonzero;stroke:black;stroke-opacity:0.11;stroke-width:1px;"/>
        <path id="path13117" d="M3.853,21.533L34.118,21.533" style="fill:none;fill-rule:nonzero;stroke:black;stroke-opacity:0.11;stroke-width:1px;"/>
        <g id="g1853" transform="matrix(1.03442,0,0.10452,1.03442,-10.0325,2.63191)">
            <path id="path1855" d="M41.786,9.036C41.795,8.562 41.801,8.312 41.362,8.312L28.807,8.321C28.507,8.321 28.482,8.178 28.807,8.321C29.131,8.464 30.054,8.979 30.989,9.022C30.989,9.022 41.786,9.038 41.786,9.036Z" style="fill:white;fill-opacity:0.58;fill-rule:nonzero;"/>
        </g>
        <path id="path13127" d="M2.964,13.533L33.991,13.533" style="fill:none;fill-rule:nonzero;stroke:black;stroke-opacity:0.11;stroke-width:1px;"/>
        <path id="path13125" d="M3.651,19.533L33.947,19.533" style="fill:none;fill-rule:nonzero;stroke:black;stroke-opacity:0.11;stroke-width:1px;"/>
        <path id="path13147" d="M2.524,9.533L17.805,9.533" style="fill:none;fill-rule:nonzero;stroke:black;stroke-opacity:0.11;stroke-width:1px;"/>
        <path id="path13840" d="M34.375,14.125L37,38.75L6,38.875L4.125,14.125C4.125,14.125 34.5,14.125 34.375,14.125Z" style="fill:url(#_Linear6);fill-rule:nonzero;"/>
        <path id="path8230" d="M43.375,2.494C43.875,19.373 34.3,21.023 37.362,31.495L5.875,32.381C4,19.528 14.25,11.166 11.25,2.649L43.375,2.494Z" style="fill:url(#_Linear7);fill-rule:nonzero;stroke:url(#_Radial8);stroke-width:1px;stroke-linecap:butt;stroke-linejoin:miter;"/>
        <path id="path8277" d="M15.438,6.562L39,6.562" style="fill:none;fill-rule:nonzero;stroke:rgb(161,161,161);stroke-width:1px;stroke-linecap:butt;stroke-linejoin:miter;"/>
        <path id="path2401" d="M5.779,39.066C5.882,39.277 6.089,39.489 6.399,39.489L39.708,39.489C39.915,39.489 40.229,39.363 40.416,39.225C40.946,38.833 41.071,38.612 41.309,38.251C43.757,34.536 47.114,18.974 47.114,18.974C47.217,18.763 47.01,18.551 46.7,18.551L11.776,18.551C11.466,18.551 10.12,34.659 6.913,37.838L5.675,39.066L5.779,39.066Z" style="fill:url(#_Linear9);fill-rule:nonzero;stroke:rgb(52,101,164);stroke-width:1px;stroke-linecap:butt;"/>
        <path id="path8279" d="M15.356,8.562L35.081,8.562" style="fill:none;fill-rule:nonzero;stroke:rgb(161,161,161);stroke-width:1px;stroke-linecap:butt;stroke-linejoin:miter;"/>
        <path id="path323" d="M13.134,20.139C12.362,25.129 11.633,29.148 10.418,33.653C12.805,32.945 17.535,30.448 27.535,30.448C37.535,30.448 44.258,21.199 45.186,20.094L13.134,20.139Z" style="fill:url(#_Linear10);"/>
        <path id="path8281" d="M15.143,10.563L39.458,10.563" style="fill:none;fill-rule:nonzero;stroke:rgb(161,161,161);stroke-width:1px;stroke-linecap:butt;stroke-linejoin:miter;"/>
        <path id="path324" d="M45.82,19.688L12.662,19.688C12.662,19.688 10.514,35.707 7.939,37.928C16.06,37.928 39.511,37.879 39.53,37.879C41.282,37.879 44.438,25.243 45.82,19.688Z" style="fill:none;stroke:url(#_Linear11);stroke-width:1px;stroke-linejoin:miter;"/>
        <path id="path8283" d="M14.399,12.563L38.252,12.563" style="fill:none;fill-rule:nonzero;stroke:rgb(161,161,161);stroke-width:1px;stroke-linecap:butt;stroke-linejoin:miter;"/>
        <path id="path8285" d="M13.629,14.563L36.975,14.563" style="fill:none;fill-rule:nonzero;stroke:rgb(161,161,161);stroke-width:1px;stroke-linecap:butt;stroke-linejoin:miter;"/>
        <path id="path8287" d="M12.521,16.563L31.167,16.563" style="fill:none;fill-rule:nonzero;stroke:rgb(161,161,161);stroke-width:1px;stroke-linecap:butt;stroke-linejoin:miter;"/>
        <path id="path8289" d="M6.375,31.75C5.134,19.512 13.563,12.688 12,3L42.875,3L12.875,3.625C14.125,13.188 6.679,18.271 6.375,31.75Z" style="fill:white;fill-rule:nonzero;"/>
    </g>
    <defs>
        <radialGradient id="_Radial1" cx="0" cy="0" r="1" gradientUnits="userSpaceOnUse" gradientTransform="matrix(32.7642,0,3.32614,32.2763,30.4531,38.131)"><stop offset="0" style="stop-color:rgb(160,160,160);stop-opacity:1"/><stop offset="1" style="stop-color:rgb(168,168,168);stop-opacity:1"/></radialGradient>
        <linearGradient id="_Linear2" x1="0" y1="0" x2="1" y2="0" gradientUnits="userSpaceOnUse" gradientTransform="matrix(2.92909e-14,478.357,-478.357,2.92909e-14,-1051.94,-150.697)"><stop offset="0" style="stop-color:black;stop-opacity:0"/><stop offset="0.5" style="stop-color:black;stop-opacity:0.4"/><stop offset="1" style="stop-color:black;stop-opacity:0"/></linearGradient>
        <radialGradient id="_Radial3" cx="0" cy="0" r="1" gradientUnits="userSpaceOnUse" gradientTransform="matrix(325,0,0,230.737,-211.146,85.6679)"><stop offset="0" style="stop-color:black;stop-opacity:0.4"/><stop offset="1" style="stop-color:black;stop-opacity:0"/></radialGradient>
        <radialGradient id="_Radial4" cx="0" cy="0" r="1" gradientUnits="userSpaceOnUse" gradientTransform="matrix(-325,0,0,230.737,-1567.72,85.6679)"><stop offset="0" style="stop-color:black;stop-opacity:0.4"/><stop offset="1" style="stop-color:black;stop-opacity:0"/></radialGradient>
        <linearGradient id="_Linear5" x1="0" y1="0" x2="1" y2="0" gradientUnits="userSpaceOnUse" gradientTransform="matrix(6.65152,23.1764,-23.1764,6.65152,8.99582,12.8023)"><stop offset="0" style="stop-color:white;stop-opacity:0.7"/><stop offset="1" style="stop-color:white;stop-opacity:0"/></linearGradient>
        <linearGradient id="_Linear6" x1="0" y1="0" x2="1" y2="0" gradientUnits="userSpaceOnUse" gradientTransform="matrix(-2.5,-22.75,22.75,-2.5,22.25,37.625)"><stop offset="0" style="stop-color:black;stop-opacity:0.39"/><stop offset="1" style="stop-color:black;stop-opacity:0"/></linearGradient>
        <linearGradient id="_Linear7" x1="0" y1="0" x2="1" y2="0" gradientUnits="userSpaceOnUse" gradientTransform="matrix(-0.625,25.0858,-25.0858,-0.625,25.875,5.28172)"><stop offset="0" style="stop-color:rgb(250,250,250);stop-opacity:1"/><stop offset="0.5" style="stop-color:rgb(168,168,168);stop-opacity:1"/><stop offset="1" style="stop-color:rgb(205,205,205);stop-opacity:1"/></linearGradient>
        <radialGradient id="_Radial8" cx="0" cy="0" r="1" gradientUnits="userSpaceOnUse" gradientTransform="matrix(36.554,0,0,39.5142,52.909,-13.0757)"><stop offset="0" style="stop-color:rgb(163,163,163);stop-opacity:1"/><stop offset="1" style="stop-color:rgb(76,76,76);stop-opacity:1"/></radialGradient>
        <linearGradient id="_Linear9" x1="0" y1="0" x2="1" y2="0" gradientUnits="userSpaceOnUse" gradientTransform="matrix(-0.110645,-5.04671,5.04671,-0.110645,74.2329,36.4831)"><stop offset="0" style="stop-color:rgb(97,148,203);stop-opacity:1"/><stop offset="1" style="stop-color:rgb(114,159,207);stop-opacity:1"/></linearGradient>
        <linearGradient id="_Linear10" x1="0" y1="0" x2="1" y2="0" gradientUnits="userSpaceOnUse" gradientTransform="matrix(12,9.625,-9.625,12,26.3264,20.073)"><stop offset="0" style="stop-color:white;stop-opacity:0.13"/><stop offset="1" style="stop-color:white;stop-opacity:0.05"/></linearGradient>
        <linearGradient id="_Linear11" x1="0" y1="0" x2="1" y2="0" gradientUnits="userSpaceOnUse" gradientTransform="matrix(0.441825,16.1562,-16.1562,0.441825,27.1743,20.3625)"><stop offset="0" style="stop-color:white;stop-opacity:0.52"/><stop offset="1" style="stop-color:white;stop-opacity:0"/></linearGradient>
    </defs>
</svg>
