<?xml version="1.0" encoding="UTF-8" standalone="no"?>
<!DOCTYPE svg PUBLIC "-//W3C//DTD SVG 1.1//EN" "http://www.w3.org/Graphics/SVG/1.1/DTD/svg11.dtd">
<svg width="100%" height="100%" viewBox="0 0 48 48" version="1.1" xmlns="http://www.w3.org/2000/svg" xmlns:xlink="http://www.w3.org/1999/xlink" xml:space="preserve" xmlns:serif="http://www.serif.com/" style="fill-rule:evenodd;clip-rule:evenodd;">
    <g id="Layer-1" serif:id="Layer 1">
        <g id="g5022" transform="matrix(0.0249599,0,0,0.0148574,46.7722,36.6091)">
            <rect id="rect4173" x="-1559.25" y="-150.697" width="1339.63" height="478.357" style="fill:url(#_Linear1);"/>
            <path id="path5058" d="M-219.619,-150.68L-219.619,327.65C-76.745,328.551 125.781,220.481 125.781,88.454C125.781,-43.572 -33.655,-150.68 -219.619,-150.68Z" style="fill:url(#_Radial2);fill-rule:nonzero;"/>
            <path id="path5018" d="M-1559.25,-150.68L-1559.25,327.65C-1702.13,328.551 -1904.65,220.481 -1904.65,88.454C-1904.65,-43.572 -1745.22,-150.68 -1559.25,-150.68Z" style="fill:url(#_Radial3);fill-rule:nonzero;"/>
        </g>
        <path id="rect5857" d="M46.451,11.25L46.451,35.75C46.451,37.268 45.219,38.5 43.701,38.5L5.303,38.5C3.786,38.5 2.553,37.268 2.553,35.75L2.553,11.25C2.553,9.732 3.786,8.5 5.303,8.5L43.701,8.5C45.219,8.5 46.451,9.732 46.451,11.25Z" style="fill:url(#_Linear4);stroke:rgb(147,147,147);stroke-width:1px;"/>
        <g transform="matrix(0.420607,0,0,0.420607,2.16242,8.93329)">
            <path id="path3214" d="M43.96,23.485C43.96,34.195 35.278,42.877 24.57,42.877C13.86,42.877 5.179,34.195 5.179,23.485C5.179,12.776 13.86,4.095 24.57,4.095C35.278,4.095 43.96,12.776 43.96,23.485Z" style="fill:url(#_Radial5);fill-rule:nonzero;stroke:rgb(57,57,108);stroke-width:1px;"/>
            <g id="g4136" transform="matrix(0.982371,0,0,0.982371,0.121079,0.232914)">
                <g id="g4138">
                    <g id="g4142">
                        <path id="path4144" d="M44.071,20.714C44.071,20.977 44.071,20.714 44.071,20.714L43.526,21.332C43.192,20.938 42.817,20.607 42.437,20.261L41.601,20.384L40.837,19.521L40.837,20.589L41.491,21.084L41.927,21.578L42.509,20.92C42.655,21.194 42.8,21.468 42.945,21.743L42.945,22.565L42.29,23.305L41.091,24.128L40.183,25.035L39.601,24.375L39.892,23.634L39.311,22.976L38.329,20.878L37.493,19.933L37.274,20.179L37.603,21.373L38.22,22.072C38.572,23.089 38.921,24.062 39.384,25.035C40.102,25.035 40.778,24.959 41.491,24.869L41.491,25.445L40.619,27.584L39.819,28.488L39.165,29.889L39.165,32.191L39.384,33.098L39.021,33.508L38.22,34.002L37.384,34.701L38.075,35.483L37.13,36.307L37.312,36.84L35.894,38.446L34.949,38.446L34.149,38.94L33.64,38.94L33.64,38.281L33.423,36.963C33.142,36.137 32.849,35.317 32.551,34.496C32.551,33.891 32.587,33.291 32.623,32.686L32.987,31.863L32.478,30.875L32.515,29.518L31.823,28.736L32.169,27.606L31.606,26.967L30.624,26.967L30.297,26.597L29.316,27.215L28.916,26.761L28.007,27.543C27.39,26.843 26.772,26.144 26.153,25.445L25.427,23.716L26.081,22.73L25.718,22.319L26.517,20.425C27.173,19.609 27.858,18.826 28.552,18.04L29.788,17.711L31.169,17.547L32.114,17.794L33.459,19.15L33.932,18.616L34.585,18.534L35.821,18.945L36.767,18.945L37.421,18.369L37.712,17.958L37.057,17.547L35.966,17.465C35.663,17.045 35.382,16.603 35.022,16.23L34.658,16.394L34.513,17.465L33.858,16.724L33.714,15.9L32.987,15.326L32.695,15.326L33.423,16.148L33.132,16.888L32.551,17.052L32.914,16.312L32.259,15.984L31.679,15.326L30.587,15.572L30.442,15.9L29.788,16.312L29.425,17.218L28.516,17.67L28.116,17.218L27.68,17.218L27.68,15.736L28.626,15.242L29.352,15.242L29.206,14.667L28.626,14.091L29.606,13.885L30.151,13.268L30.587,12.527L31.388,12.527L31.169,11.952L31.679,11.623L31.679,12.281L32.768,12.527L33.858,11.623L33.931,11.211L34.876,10.553C34.534,10.596 34.192,10.627 33.858,10.718L33.858,9.977L34.221,9.154L33.858,9.154L33.06,9.894L32.841,10.306L33.06,10.882L32.695,11.869L32.114,11.54L31.606,10.964L30.806,11.54L30.515,10.224L31.895,9.319L31.895,8.825L32.769,8.249L34.149,7.919L35.095,8.249L36.839,8.578L36.403,9.071L35.458,9.071L36.403,10.059L37.13,9.236L37.351,8.875C37.351,8.875 40.138,11.373 41.731,14.105C43.323,16.838 44.071,20.06 44.071,20.714Z" style="fill-opacity:0.71;fill-rule:nonzero;"/>
                    </g>
                </g>
                <g id="g4146">
                    <g id="g4150">
                        <path id="path4152" d="M26.07,9.236L25.997,9.73L26.507,10.059L27.378,9.483L26.943,8.989L26.36,9.319L26.071,9.236" style="fill-opacity:0.71;fill-rule:nonzero;"/>
                    </g>
                </g>
                <g id="g4154">
                    <g id="g4158">
                        <path id="path4160" d="M26.87,5.863L24.98,5.123L22.8,5.369L20.109,6.109L19.601,6.604L21.273,7.755L21.273,8.413L20.618,9.071L21.491,10.8L22.071,10.47L22.8,9.319C23.923,8.972 24.93,8.578 25.997,8.084L26.87,5.863" style="fill-opacity:0.71;fill-rule:nonzero;"/>
                    </g>
                </g>
                <g id="g4162">
                    <g id="g4166">
                        <path id="path4168" d="M28.833,12.775L28.542,12.034L28.032,12.199L28.179,13.103L28.833,12.775" style="fill-opacity:0.71;fill-rule:nonzero;"/>
                    </g>
                </g>
                <g id="g4170">
                    <g id="g4174">
                        <path id="path4176" d="M29.123,12.609L28.978,13.597L29.777,13.432L30.358,12.857L29.85,12.363C29.679,11.908 29.482,11.483 29.269,11.047L28.833,11.047L28.833,11.54L29.123,11.869L29.123,12.609" style="fill-opacity:0.71;fill-rule:nonzero;"/>
                    </g>
                </g>
                <g id="g4178">
                    <g id="g4182">
                        <path id="path4184" d="M18.365,28.242L17.783,27.09L16.693,26.843L16.111,25.281L14.658,25.445L13.422,24.541L12.113,25.692L12.113,25.874C11.717,25.759 11.23,25.744 10.878,25.527L10.587,24.705L10.587,23.799L9.715,23.881C9.788,23.305 9.86,22.73 9.933,22.154L9.424,22.154L8.916,22.812L8.406,23.058L7.679,22.648L7.606,21.743L7.752,20.755L8.843,19.933L9.715,19.933L9.86,19.439L10.95,19.685L11.75,20.673L11.895,19.027L13.277,17.875L13.785,16.641L14.803,16.23L15.384,15.408L16.693,15.16L17.347,14.173L15.384,14.173L16.62,13.597L17.492,13.597L18.728,13.185L18.874,12.693L18.437,12.281L17.928,12.116L18.074,11.623L17.711,10.882L16.838,11.21L16.984,10.553L15.966,9.977L15.167,11.374L15.239,11.868L14.44,12.199L13.93,13.268L13.713,12.281L12.331,11.704L12.113,10.964L13.93,9.894L14.73,9.154L14.803,8.249L14.367,8.002L13.785,7.919L13.422,8.825C13.422,8.825 12.814,8.944 12.658,8.982C10.662,10.822 6.629,14.792 5.692,22.289C5.729,22.462 6.371,23.47 6.371,23.47L7.897,24.374L9.424,24.787L10.078,25.61L11.096,26.35L11.677,26.268L12.113,26.464L12.113,26.597L11.532,28.16L11.095,28.818L11.241,29.148L10.878,30.381L12.186,32.767L13.494,33.92L14.076,34.742L14.003,36.471L14.44,37.457L14.003,39.349C14.003,39.349 13.969,39.338 14.025,39.527C14.081,39.717 16.354,40.978 16.498,40.871C16.642,40.762 16.765,40.666 16.765,40.666L16.62,40.256L17.201,39.679L17.42,39.103L18.365,38.773L19.092,36.963L18.874,36.47L19.382,35.73L20.472,35.482L21.054,34.166L20.909,32.521L21.781,31.287L21.927,30.052C20.733,29.461 19.549,28.851 18.365,28.242" style="fill-opacity:0.71;fill-rule:nonzero;"/>
                    </g>
                </g>
                <g id="g4186">
                    <g id="g4190">
                        <path id="path4192" d="M16.766,9.565L17.492,10.059L18.074,10.059L18.074,9.483L17.348,9.154L16.766,9.565" style="fill-opacity:0.71;fill-rule:nonzero;"/>
                    </g>
                </g>
                <g id="g4194">
                    <g id="g4198">
                        <path id="path4200" d="M14.876,8.907L14.512,9.812L15.239,9.812L15.603,8.989C15.917,8.768 16.229,8.544 16.548,8.331L17.275,8.578C17.759,8.907 18.244,9.236 18.729,9.565L19.456,8.907L18.656,8.578L18.292,7.837L16.911,7.673L16.838,7.261L16.184,7.426L15.894,8.002L15.53,7.261L15.385,7.59L15.458,8.413L14.876,8.907" style="fill-opacity:0.71;fill-rule:nonzero;"/>
                    </g>
                </g>
                <g id="g4202">
                </g>
                <g id="g4212">
                </g>
                <g id="g4222">
                    <g id="g4226">
                        <path id="path4228" d="M17.492,6.85L17.856,6.521L18.583,6.356C19.081,6.114 19.581,5.951 20.11,5.78L19.82,5.287L18.881,5.421L18.438,5.863L17.707,5.969L17.057,6.274L16.741,6.427L16.548,6.686L17.492,6.85" style="fill-opacity:0.71;fill-rule:nonzero;"/>
                    </g>
                </g>
                <g id="g4230">
                    <g id="g4234">
                        <path id="path4236" d="M18.729,14.666L19.165,14.008L18.51,13.515L18.729,14.666" style="fill-opacity:0.71;fill-rule:nonzero;"/>
                    </g>
                </g>
            </g>
            <g id="g3216" transform="matrix(0.982371,0,0,0.982371,-0.0809518,0.030883)">
                <g id="g3218">
                    <g id="g3222">
                        <path id="path3224" d="M44.071,20.714C44.071,20.977 44.071,20.714 44.071,20.714L43.526,21.332C43.192,20.938 42.817,20.607 42.437,20.261L41.601,20.384L40.837,19.521L40.837,20.589L41.491,21.084L41.927,21.578L42.509,20.92C42.655,21.194 42.8,21.468 42.945,21.743L42.945,22.565L42.29,23.305L41.091,24.128L40.183,25.035L39.601,24.375L39.892,23.634L39.311,22.976L38.329,20.878L37.493,19.933L37.274,20.179L37.603,21.373L38.22,22.072C38.572,23.089 38.921,24.062 39.384,25.035C40.102,25.035 40.778,24.959 41.491,24.869L41.491,25.445L40.619,27.584L39.819,28.488L39.165,29.889L39.165,32.191L39.384,33.098L39.021,33.508L38.22,34.002L37.384,34.701L38.075,35.483L37.13,36.307L37.312,36.84L35.894,38.446L34.949,38.446L34.149,38.94L33.64,38.94L33.64,38.281L33.423,36.963C33.142,36.137 32.849,35.317 32.551,34.496C32.551,33.891 32.587,33.291 32.623,32.686L32.987,31.863L32.478,30.875L32.515,29.518L31.823,28.736L32.169,27.606L31.606,26.967L30.624,26.967L30.297,26.597L29.316,27.215L28.916,26.761L28.007,27.543C27.39,26.843 26.772,26.144 26.153,25.445L25.427,23.716L26.081,22.73L25.718,22.319L26.517,20.425C27.173,19.609 27.858,18.826 28.552,18.04L29.788,17.711L31.169,17.547L32.114,17.794L33.459,19.15L33.932,18.616L34.585,18.534L35.821,18.945L36.767,18.945L37.421,18.369L37.712,17.958L37.057,17.547L35.966,17.465C35.663,17.045 35.382,16.603 35.022,16.23L34.658,16.394L34.513,17.465L33.858,16.724L33.714,15.9L32.987,15.326L32.695,15.326L33.423,16.148L33.132,16.888L32.551,17.052L32.914,16.312L32.259,15.984L31.679,15.326L30.587,15.572L30.442,15.9L29.788,16.312L29.425,17.218L28.516,17.67L28.116,17.218L27.68,17.218L27.68,15.736L28.626,15.242L29.352,15.242L29.206,14.667L28.626,14.091L29.606,13.885L30.151,13.268L30.587,12.527L31.388,12.527L31.169,11.952L31.679,11.623L31.679,12.281L32.768,12.527L33.858,11.623L33.931,11.211L34.876,10.553C34.534,10.596 34.192,10.627 33.858,10.718L33.858,9.977L34.221,9.154L33.858,9.154L33.06,9.894L32.841,10.306L33.06,10.882L32.695,11.869L32.114,11.54L31.606,10.964L30.806,11.54L30.515,10.224L31.895,9.319L31.895,8.825L32.769,8.249L34.149,7.919L35.095,8.249L36.839,8.578L36.403,9.071L35.458,9.071L36.403,10.059L37.13,9.236L37.351,8.875C37.351,8.875 40.138,11.373 41.731,14.105C43.323,16.838 44.071,20.06 44.071,20.714Z" style="fill:url(#_Radial6);fill-rule:nonzero;"/>
                    </g>
                </g>
                <g id="g3226">
                    <g id="g3230">
                        <path id="path3232" d="M26.07,9.236L25.997,9.73L26.507,10.059L27.378,9.483L26.943,8.989L26.36,9.319L26.071,9.236" style="fill:url(#_Radial7);fill-rule:nonzero;"/>
                    </g>
                </g>
                <g id="g3234">
                    <g id="g3238">
                        <path id="path3240" d="M26.87,5.863L24.98,5.123L22.8,5.369L20.109,6.109L19.601,6.604L21.273,7.755L21.273,8.413L20.618,9.071L21.491,10.8L22.071,10.47L22.8,9.319C23.923,8.972 24.93,8.578 25.997,8.084L26.87,5.863" style="fill:url(#_Radial8);fill-rule:nonzero;"/>
                    </g>
                </g>
                <g id="g3242">
                    <g id="g3246">
                        <path id="path3248" d="M28.833,12.775L28.542,12.034L28.032,12.199L28.179,13.103L28.833,12.775" style="fill:url(#_Radial9);fill-rule:nonzero;"/>
                    </g>
                </g>
                <g id="g3250">
                    <g id="g3254">
                        <path id="path3256" d="M29.123,12.609L28.978,13.597L29.777,13.432L30.358,12.857L29.85,12.363C29.679,11.908 29.482,11.483 29.269,11.047L28.833,11.047L28.833,11.54L29.123,11.869L29.123,12.609" style="fill:url(#_Radial10);fill-rule:nonzero;"/>
                    </g>
                </g>
                <g id="g3258">
                    <g id="g3262">
                        <path id="path3264" d="M18.365,28.242L17.783,27.09L16.693,26.843L16.111,25.281L14.658,25.445L13.422,24.541L12.113,25.692L12.113,25.874C11.717,25.759 11.23,25.744 10.878,25.527L10.587,24.705L10.587,23.799L9.715,23.881C9.788,23.305 9.86,22.73 9.933,22.154L9.424,22.154L8.916,22.812L8.406,23.058L7.679,22.648L7.606,21.743L7.752,20.755L8.843,19.933L9.715,19.933L9.86,19.439L10.95,19.685L11.75,20.673L11.895,19.027L13.277,17.875L13.785,16.641L14.803,16.23L15.384,15.408L16.693,15.16L17.347,14.173L15.384,14.173L16.62,13.597L17.492,13.597L18.728,13.185L18.874,12.693L18.437,12.281L17.928,12.116L18.074,11.623L17.711,10.882L16.838,11.21L16.984,10.553L15.966,9.977L15.167,11.374L15.239,11.868L14.44,12.199L13.93,13.268L13.713,12.281L12.331,11.704L12.113,10.964L13.93,9.894L14.73,9.154L14.803,8.249L14.367,8.002L13.785,7.919L13.422,8.825C13.422,8.825 12.814,8.944 12.658,8.982C10.662,10.822 6.629,14.792 5.692,22.289C5.729,22.462 6.371,23.47 6.371,23.47L7.897,24.374L9.424,24.787L10.078,25.61L11.096,26.35L11.677,26.268L12.113,26.464L12.113,26.597L11.532,28.16L11.095,28.818L11.241,29.148L10.878,30.381L12.186,32.767L13.494,33.92L14.076,34.742L14.003,36.471L14.44,37.457L14.003,39.349C14.003,39.349 13.969,39.338 14.025,39.527C14.081,39.717 16.354,40.978 16.498,40.871C16.642,40.762 16.765,40.666 16.765,40.666L16.62,40.256L17.201,39.679L17.42,39.103L18.365,38.773L19.092,36.963L18.874,36.47L19.382,35.73L20.472,35.482L21.054,34.166L20.909,32.521L21.781,31.287L21.927,30.052C20.733,29.461 19.549,28.851 18.365,28.242" style="fill:url(#_Radial11);fill-rule:nonzero;"/>
                    </g>
                </g>
                <g id="g3266">
                    <g id="g3270">
                        <path id="path3272" d="M16.766,9.565L17.492,10.059L18.074,10.059L18.074,9.483L17.348,9.154L16.766,9.565" style="fill:url(#_Radial12);fill-rule:nonzero;"/>
                    </g>
                </g>
                <g id="g3274">
                    <g id="g3278">
                        <path id="path3280" d="M14.876,8.907L14.512,9.812L15.239,9.812L15.603,8.989C15.917,8.768 16.229,8.544 16.548,8.331L17.275,8.578C17.759,8.907 18.244,9.236 18.729,9.565L19.456,8.907L18.656,8.578L18.292,7.837L16.911,7.673L16.838,7.261L16.184,7.426L15.894,8.002L15.53,7.261L15.385,7.59L15.458,8.413L14.876,8.907" style="fill:url(#_Radial13);fill-rule:nonzero;"/>
                    </g>
                </g>
                <g id="g3282">
                </g>
                <g id="g3292">
                </g>
                <g id="g3302">
                    <g id="g3306">
                        <path id="path3308" d="M17.492,6.85L17.856,6.521L18.583,6.356C19.081,6.114 19.581,5.951 20.11,5.78L19.82,5.287L18.881,5.421L18.438,5.863L17.707,5.969L17.057,6.274L16.741,6.427L16.548,6.686L17.492,6.85" style="fill:url(#_Radial14);fill-rule:nonzero;"/>
                    </g>
                </g>
                <g id="g3310">
                    <g id="g3314">
                        <path id="path3316" d="M18.729,14.666L19.165,14.008L18.51,13.515L18.729,14.666" style="fill:url(#_Radial15);fill-rule:nonzero;"/>
                    </g>
                </g>
            </g>
            <path id="path4122" d="M42.975,23.486C42.975,33.651 34.734,41.892 24.569,41.892C14.404,41.892 6.163,33.651 6.163,23.486C6.163,13.32 14.404,5.08 24.569,5.08C34.734,5.08 42.975,13.32 42.975,23.486Z" style="fill:none;fill-rule:nonzero;stroke:url(#_Radial16);stroke-width:1px;"/>
        </g>
        <path id="rect6740" d="M45.449,11.379L45.449,35.621C45.449,36.587 44.665,37.371 43.699,37.371L5.298,37.371C4.332,37.371 3.548,36.587 3.548,35.621L3.548,11.379C3.548,10.413 4.332,9.629 5.298,9.629L43.699,9.629C44.665,9.629 45.449,10.413 45.449,11.379Z" style="fill:none;stroke:white;stroke-width:1px;"/>
        <g id="rect6978" transform="matrix(1.13913,0,0,1,-0.780909,-1.57796)">
            <path d="M38.375,20.978C38.375,21.53 37.982,21.978 37.497,21.978L21.878,21.978C21.393,21.978 21,21.53 21,20.978C21,20.426 21.393,19.978 21.878,19.978L37.497,19.978C37.982,19.978 38.375,20.426 38.375,20.978Z" style="fill:rgb(141,141,141);fill-opacity:0.4;"/>
        </g>
        <g id="rect6980" transform="matrix(1.06123,0,0,1,0.85502,-1.5)">
            <path d="M35,24C35,24.552 34.578,25 34.058,25L21.942,25C21.422,25 21,24.552 21,24C21,23.448 21.422,23 21.942,23L34.058,23C34.578,23 35,23.448 35,24Z" style="fill:rgb(141,141,141);fill-opacity:0.4;"/>
        </g>
        <g id="g7033" transform="matrix(1,0,0,0.833333,0,5)">
            <g opacity="0.49">
                <rect id="rect7003" x="6" y="30" width="1" height="6"/>
                <rect id="rect7005" x="8.085" y="30" width="1.938" height="3.6"/>
                <rect id="rect7007" x="11" y="30" width="1" height="3.6"/>
                <rect id="rect7009" x="13" y="30" width="2" height="3.6"/>
                <rect id="rect7011" x="16" y="30" width="1" height="3.6"/>
                <rect id="rect7013" x="18" y="30" width="1" height="3.6"/>
                <rect id="rect7015" x="21" y="30" width="1" height="3.6"/>
                <rect id="rect7017" x="23" y="30" width="2" height="3.6"/>
                <rect id="rect7019" x="26" y="30" width="2" height="3.6"/>
                <rect id="rect7021" x="29" y="30" width="1" height="3.6"/>
                <rect id="rect7023" x="31" y="30" width="1" height="3.6"/>
                <rect id="rect7025" x="33" y="30" width="1" height="3.6"/>
                <rect id="rect7027" x="35" y="30" width="2" height="3.6"/>
                <rect id="rect7029" x="39" y="30" width="2" height="3.6"/>
                <rect id="rect7031" x="42" y="30" width="1" height="6"/>
            </g>
        </g>
        <path id="text7050" d="M8.937,34.398C9.012,34.414 9.071,34.448 9.113,34.498C9.155,34.549 9.176,34.611 9.176,34.686C9.176,34.8 9.137,34.889 9.058,34.951C8.98,35.014 8.868,35.045 8.723,35.045C8.675,35.045 8.625,35.04 8.573,35.03C8.522,35.021 8.469,35.007 8.414,34.988L8.414,34.836C8.457,34.862 8.505,34.881 8.557,34.894C8.608,34.907 8.662,34.913 8.719,34.913C8.817,34.913 8.892,34.894 8.943,34.855C8.995,34.816 9.02,34.76 9.02,34.686C9.02,34.618 8.996,34.564 8.948,34.526C8.901,34.487 8.834,34.468 8.749,34.468L8.614,34.468L8.614,34.339L8.755,34.339C8.832,34.339 8.891,34.324 8.932,34.294C8.973,34.262 8.993,34.218 8.993,34.16C8.993,34.101 8.972,34.055 8.93,34.024C8.888,33.992 8.828,33.976 8.749,33.976C8.706,33.976 8.66,33.98 8.611,33.99C8.562,33.999 8.508,34.013 8.449,34.033L8.449,33.893C8.508,33.877 8.564,33.864 8.616,33.856C8.668,33.848 8.717,33.844 8.763,33.844C8.882,33.844 8.976,33.871 9.045,33.925C9.115,33.979 9.149,34.052 9.149,34.144C9.149,34.208 9.131,34.262 9.094,34.307C9.057,34.351 9.005,34.381 8.937,34.398M9.609,34.891L10.156,34.891L10.156,35.022L9.421,35.022L9.421,34.891C9.48,34.829 9.561,34.747 9.663,34.643C9.766,34.539 9.831,34.472 9.857,34.442C9.907,34.386 9.942,34.338 9.962,34.3C9.982,34.26 9.992,34.222 9.992,34.184C9.992,34.123 9.97,34.073 9.927,34.034C9.884,33.995 9.828,33.976 9.759,33.976C9.71,33.976 9.658,33.984 9.603,34.001C9.549,34.018 9.49,34.044 9.428,34.079L9.428,33.921C9.491,33.895 9.55,33.876 9.605,33.863C9.66,33.85 9.71,33.844 9.756,33.844C9.876,33.844 9.971,33.874 10.043,33.934C10.114,33.994 10.15,34.074 10.15,34.174C10.15,34.222 10.14,34.267 10.122,34.31C10.105,34.352 10.072,34.402 10.025,34.46C10.013,34.475 9.971,34.519 9.902,34.591C9.833,34.662 9.735,34.762 9.609,34.891M10.916,34.001L10.52,34.619L10.916,34.619L10.916,34.001M10.875,33.865L11.072,33.865L11.072,34.619L11.237,34.619L11.237,34.749L11.072,34.749L11.072,35.022L10.916,35.022L10.916,34.749L10.393,34.749L10.393,34.598L10.875,33.865M11.498,33.865L12.113,33.865L12.113,33.997L11.641,33.997L11.641,34.28C11.664,34.273 11.687,34.267 11.71,34.263C11.732,34.259 11.755,34.257 11.778,34.257C11.907,34.257 12.01,34.292 12.085,34.363C12.161,34.434 12.198,34.53 12.198,34.651C12.198,34.776 12.159,34.873 12.082,34.942C12.004,35.011 11.895,35.045 11.754,35.045C11.705,35.045 11.656,35.041 11.605,35.033C11.555,35.024 11.503,35.012 11.449,34.995L11.449,34.838C11.496,34.863 11.544,34.882 11.593,34.894C11.643,34.907 11.696,34.913 11.751,34.913C11.84,34.913 11.911,34.89 11.963,34.843C12.016,34.795 12.042,34.732 12.042,34.651C12.042,34.57 12.016,34.507 11.963,34.459C11.911,34.412 11.84,34.389 11.751,34.389C11.709,34.389 11.667,34.394 11.625,34.403C11.584,34.412 11.541,34.427 11.498,34.446L11.498,33.865M13.348,33.968C13.268,33.968 13.207,34.008 13.166,34.087C13.126,34.166 13.106,34.285 13.106,34.445C13.106,34.603 13.126,34.723 13.166,34.802C13.207,34.881 13.268,34.921 13.348,34.921C13.429,34.921 13.49,34.881 13.53,34.802C13.571,34.723 13.592,34.603 13.592,34.445C13.592,34.285 13.571,34.166 13.53,34.087C13.49,34.008 13.429,33.968 13.348,33.968M13.348,33.844C13.478,33.844 13.577,33.895 13.645,33.998C13.714,34.1 13.748,34.249 13.748,34.445C13.748,34.64 13.714,34.789 13.645,34.891C13.577,34.994 13.478,35.045 13.348,35.045C13.218,35.045 13.119,34.994 13.05,34.891C12.982,34.789 12.948,34.64 12.948,34.445C12.948,34.249 12.982,34.1 13.05,33.998C13.119,33.895 13.218,33.844 13.348,33.844M14.026,33.865L14.641,33.865L14.641,33.997L14.169,33.997L14.169,34.28C14.192,34.273 14.215,34.267 14.238,34.263C14.26,34.259 14.283,34.257 14.306,34.257C14.435,34.257 14.538,34.292 14.613,34.363C14.688,34.434 14.726,34.53 14.726,34.651C14.726,34.776 14.687,34.873 14.61,34.942C14.532,35.011 14.423,35.045 14.282,35.045C14.233,35.045 14.184,35.041 14.133,35.033C14.083,35.024 14.031,35.012 13.977,34.995L13.977,34.838C14.024,34.863 14.072,34.882 14.121,34.894C14.171,34.907 14.223,34.913 14.279,34.913C14.368,34.913 14.439,34.89 14.491,34.843C14.543,34.795 14.57,34.732 14.57,34.651C14.57,34.57 14.543,34.507 14.491,34.459C14.439,34.412 14.368,34.389 14.279,34.389C14.237,34.389 14.195,34.394 14.153,34.403C14.112,34.412 14.069,34.427 14.026,34.446L14.026,33.865M15.037,33.865L15.652,33.865L15.652,33.997L15.181,33.997L15.181,34.28C15.203,34.273 15.226,34.267 15.249,34.263C15.272,34.259 15.294,34.257 15.317,34.257C15.446,34.257 15.549,34.292 15.624,34.363C15.7,34.434 15.737,34.53 15.737,34.651C15.737,34.776 15.699,34.873 15.621,34.942C15.544,35.011 15.434,35.045 15.293,35.045C15.244,35.045 15.195,35.041 15.144,35.033C15.094,35.024 15.042,35.012 14.988,34.995L14.988,34.838C15.035,34.863 15.083,34.882 15.133,34.894C15.182,34.907 15.235,34.913 15.29,34.913C15.379,34.913 15.45,34.89 15.502,34.843C15.555,34.795 15.581,34.732 15.581,34.651C15.581,34.57 15.555,34.507 15.502,34.459C15.45,34.412 15.379,34.389 15.29,34.389C15.248,34.389 15.206,34.394 15.164,34.403C15.123,34.412 15.081,34.427 15.037,34.446L15.037,33.865M16.007,33.865L16.752,33.865L16.752,33.931L16.331,35.022L16.168,35.022L16.563,33.997L16.007,33.997L16.007,33.865M17.565,33.865L18.18,33.865L18.18,33.997L17.709,33.997L17.709,34.28C17.731,34.273 17.754,34.267 17.777,34.263C17.8,34.259 17.822,34.257 17.845,34.257C17.974,34.257 18.077,34.292 18.152,34.363C18.228,34.434 18.265,34.53 18.265,34.651C18.265,34.776 18.227,34.873 18.149,34.942C18.072,35.011 17.962,35.045 17.821,35.045C17.772,35.045 17.723,35.041 17.672,35.033C17.622,35.024 17.57,35.012 17.516,34.995L17.516,34.838C17.563,34.863 17.611,34.882 17.661,34.894C17.71,34.907 17.763,34.913 17.818,34.913C17.907,34.913 17.978,34.89 18.03,34.843C18.083,34.795 18.109,34.732 18.109,34.651C18.109,34.57 18.083,34.507 18.03,34.459C17.978,34.412 17.907,34.389 17.818,34.389C17.776,34.389 17.734,34.394 17.692,34.403C17.651,34.412 17.609,34.427 17.565,34.446L17.565,33.865M18.602,34.891L18.858,34.891L18.858,34.007L18.579,34.063L18.579,33.921L18.856,33.865L19.013,33.865L19.013,34.891L19.269,34.891L19.269,35.022L18.602,35.022L18.602,34.891M19.921,33.968C19.84,33.968 19.78,34.008 19.739,34.087C19.698,34.166 19.678,34.285 19.678,34.445C19.678,34.603 19.698,34.723 19.739,34.802C19.78,34.881 19.84,34.921 19.921,34.921C20.002,34.921 20.063,34.881 20.103,34.802C20.144,34.723 20.164,34.603 20.164,34.445C20.164,34.285 20.144,34.166 20.103,34.087C20.063,34.008 20.002,33.968 19.921,33.968M19.921,33.844C20.051,33.844 20.15,33.895 20.218,33.998C20.287,34.1 20.321,34.249 20.321,34.445C20.321,34.64 20.287,34.789 20.218,34.891C20.15,34.994 20.051,35.045 19.921,35.045C19.791,35.045 19.692,34.994 19.623,34.891C19.555,34.789 19.521,34.64 19.521,34.445C19.521,34.249 19.555,34.1 19.623,33.998C19.692,33.895 19.791,33.844 19.921,33.844M20.952,34.381C20.881,34.381 20.825,34.405 20.784,34.453C20.743,34.501 20.723,34.567 20.723,34.651C20.723,34.734 20.743,34.8 20.784,34.849C20.825,34.897 20.881,34.921 20.952,34.921C21.022,34.921 21.077,34.897 21.118,34.849C21.16,34.8 21.18,34.734 21.18,34.651C21.18,34.567 21.16,34.501 21.118,34.453C21.077,34.405 21.022,34.381 20.952,34.381M21.262,33.89L21.262,34.033C21.223,34.014 21.183,34 21.143,33.99C21.103,33.98 21.064,33.976 21.024,33.976C20.921,33.976 20.842,34.01 20.787,34.08C20.733,34.15 20.702,34.256 20.694,34.397C20.725,34.352 20.763,34.317 20.809,34.294C20.855,34.269 20.906,34.257 20.961,34.257C21.077,34.257 21.169,34.292 21.236,34.363C21.304,34.434 21.338,34.53 21.338,34.651C21.338,34.77 21.303,34.865 21.232,34.937C21.162,35.009 21.068,35.045 20.952,35.045C20.818,35.045 20.715,34.994 20.644,34.891C20.574,34.789 20.538,34.64 20.538,34.445C20.538,34.262 20.582,34.116 20.668,34.007C20.755,33.898 20.872,33.844 21.018,33.844C21.058,33.844 21.097,33.848 21.137,33.855C21.177,33.863 21.219,33.875 21.262,33.89M22.115,33.865L22.73,33.865L22.73,33.997L22.259,33.997L22.259,34.28C22.282,34.273 22.304,34.267 22.327,34.263C22.35,34.259 22.373,34.257 22.395,34.257C22.525,34.257 22.627,34.292 22.703,34.363C22.778,34.434 22.816,34.53 22.816,34.651C22.816,34.776 22.777,34.873 22.699,34.942C22.622,35.011 22.513,35.045 22.371,35.045C22.323,35.045 22.273,35.041 22.222,35.033C22.172,35.024 22.12,35.012 22.067,34.995L22.067,34.838C22.113,34.863 22.161,34.882 22.211,34.894C22.26,34.907 22.313,34.913 22.368,34.913C22.458,34.913 22.529,34.89 22.581,34.843C22.633,34.795 22.659,34.732 22.659,34.651C22.659,34.57 22.633,34.507 22.581,34.459C22.529,34.412 22.458,34.389 22.368,34.389C22.326,34.389 22.285,34.394 22.243,34.403C22.201,34.412 22.159,34.427 22.115,34.446L22.115,33.865M23.555,34.001L23.16,34.619L23.555,34.619L23.555,34.001M23.514,33.865L23.711,33.865L23.711,34.619L23.877,34.619L23.877,34.749L23.711,34.749L23.711,35.022L23.555,35.022L23.555,34.749L23.033,34.749L23.033,34.598L23.514,33.865M24.471,33.968C24.391,33.968 24.33,34.008 24.289,34.087C24.249,34.166 24.229,34.285 24.229,34.445C24.229,34.603 24.249,34.723 24.289,34.802C24.33,34.881 24.391,34.921 24.471,34.921C24.552,34.921 24.613,34.881 24.654,34.802C24.694,34.723 24.715,34.603 24.715,34.445C24.715,34.285 24.694,34.166 24.654,34.087C24.613,34.008 24.552,33.968 24.471,33.968M24.471,33.844C24.601,33.844 24.7,33.895 24.768,33.998C24.837,34.1 24.871,34.249 24.871,34.445C24.871,34.64 24.837,34.789 24.768,34.891C24.7,34.994 24.601,35.045 24.471,35.045C24.342,35.045 24.242,34.994 24.174,34.891C24.105,34.789 24.071,34.64 24.071,34.445C24.071,34.249 24.105,34.1 24.174,33.998C24.242,33.895 24.342,33.844 24.471,33.844M25.502,34.381C25.432,34.381 25.376,34.405 25.334,34.453C25.294,34.501 25.273,34.567 25.273,34.651C25.273,34.734 25.294,34.8 25.334,34.849C25.376,34.897 25.432,34.921 25.502,34.921C25.572,34.921 25.628,34.897 25.669,34.849C25.71,34.8 25.731,34.734 25.731,34.651C25.731,34.567 25.71,34.501 25.669,34.453C25.628,34.405 25.572,34.381 25.502,34.381M25.813,33.89L25.813,34.033C25.774,34.014 25.734,34 25.693,33.99C25.654,33.98 25.614,33.976 25.575,33.976C25.471,33.976 25.392,34.01 25.337,34.08C25.283,34.15 25.252,34.256 25.244,34.397C25.275,34.352 25.313,34.317 25.359,34.294C25.405,34.269 25.456,34.257 25.511,34.257C25.627,34.257 25.719,34.292 25.786,34.363C25.854,34.434 25.888,34.53 25.888,34.651C25.888,34.77 25.853,34.865 25.783,34.937C25.712,35.009 25.619,35.045 25.502,35.045C25.368,35.045 25.266,34.994 25.195,34.891C25.124,34.789 25.089,34.64 25.089,34.445C25.089,34.262 25.132,34.116 25.219,34.007C25.306,33.898 25.422,33.844 25.569,33.844C25.608,33.844 25.647,33.848 25.687,33.855C25.728,33.863 25.769,33.875 25.813,33.89M26.666,33.865L27.281,33.865L27.281,33.997L26.809,33.997L26.809,34.28C26.832,34.273 26.855,34.267 26.878,34.263C26.9,34.259 26.923,34.257 26.946,34.257C27.075,34.257 27.177,34.292 27.253,34.363C27.328,34.434 27.366,34.53 27.366,34.651C27.366,34.776 27.327,34.873 27.25,34.942C27.172,35.011 27.063,35.045 26.922,35.045C26.873,35.045 26.824,35.041 26.773,35.033C26.723,35.024 26.671,35.012 26.617,34.995L26.617,34.838C26.663,34.863 26.712,34.882 26.761,34.894C26.811,34.907 26.863,34.913 26.919,34.913C27.008,34.913 27.079,34.89 27.131,34.843C27.183,34.795 27.209,34.732 27.209,34.651C27.209,34.57 27.183,34.507 27.131,34.459C27.079,34.412 27.008,34.389 26.919,34.389C26.877,34.389 26.835,34.394 26.793,34.403C26.752,34.412 26.709,34.427 26.666,34.446L26.666,33.865M28.106,34.001L27.71,34.619L28.106,34.619L28.106,34.001M28.065,33.865L28.262,33.865L28.262,34.619L28.427,34.619L28.427,34.749L28.262,34.749L28.262,35.022L28.106,35.022L28.106,34.749L27.583,34.749L27.583,34.598L28.065,33.865M29.041,34.381C28.971,34.381 28.915,34.405 28.874,34.453C28.833,34.501 28.812,34.567 28.812,34.651C28.812,34.734 28.833,34.8 28.874,34.849C28.915,34.897 28.971,34.921 29.041,34.921C29.111,34.921 29.167,34.897 29.208,34.849C29.249,34.8 29.27,34.734 29.27,34.651C29.27,34.567 29.249,34.501 29.208,34.453C29.167,34.405 29.111,34.381 29.041,34.381M29.352,33.89L29.352,34.033C29.313,34.014 29.273,34 29.233,33.99C29.193,33.98 29.153,33.976 29.114,33.976C29.011,33.976 28.931,34.01 28.877,34.08C28.822,34.15 28.791,34.256 28.784,34.397C28.814,34.352 28.852,34.317 28.898,34.294C28.944,34.269 28.995,34.257 29.05,34.257C29.167,34.257 29.258,34.292 29.326,34.363C29.393,34.434 29.427,34.53 29.427,34.651C29.427,34.77 29.392,34.865 29.322,34.937C29.251,35.009 29.158,35.045 29.041,35.045C28.907,35.045 28.805,34.994 28.734,34.891C28.663,34.789 28.628,34.64 28.628,34.445C28.628,34.262 28.671,34.116 28.758,34.007C28.845,33.898 28.961,33.844 29.108,33.844C29.147,33.844 29.187,33.848 29.226,33.855C29.267,33.863 29.309,33.875 29.352,33.89M29.699,33.865L30.314,33.865L30.314,33.997L29.843,33.997L29.843,34.28C29.866,34.273 29.888,34.267 29.911,34.263C29.934,34.259 29.957,34.257 29.979,34.257C30.109,34.257 30.211,34.292 30.286,34.363C30.362,34.434 30.4,34.53 30.4,34.651C30.4,34.776 30.361,34.873 30.283,34.942C30.206,35.011 30.096,35.045 29.955,35.045C29.907,35.045 29.857,35.041 29.806,35.033C29.756,35.024 29.704,35.012 29.651,34.995L29.651,34.838C29.697,34.863 29.745,34.882 29.795,34.894C29.844,34.907 29.897,34.913 29.952,34.913C30.042,34.913 30.112,34.89 30.165,34.843C30.217,34.795 30.243,34.732 30.243,34.651C30.243,34.57 30.217,34.507 30.165,34.459C30.112,34.412 30.042,34.389 29.952,34.389C29.91,34.389 29.868,34.394 29.827,34.403C29.785,34.412 29.743,34.427 29.699,34.446L29.699,33.865M31.175,33.865L31.919,33.865L31.919,33.931L31.499,35.022L31.336,35.022L31.731,33.997L31.175,33.997L31.175,33.865M32.561,33.968C32.48,33.968 32.419,34.008 32.379,34.087C32.338,34.166 32.318,34.285 32.318,34.445C32.318,34.603 32.338,34.723 32.379,34.802C32.419,34.881 32.48,34.921 32.561,34.921C32.642,34.921 32.703,34.881 32.743,34.802C32.784,34.723 32.804,34.603 32.804,34.445C32.804,34.285 32.784,34.166 32.743,34.087C32.703,34.008 32.642,33.968 32.561,33.968M32.561,33.844C32.691,33.844 32.79,33.895 32.858,33.998C32.927,34.1 32.961,34.249 32.961,34.445C32.961,34.64 32.927,34.789 32.858,34.891C32.79,34.994 32.691,35.045 32.561,35.045C32.431,35.045 32.332,34.994 32.263,34.891C32.195,34.789 32.161,34.64 32.161,34.445C32.161,34.249 32.195,34.1 32.263,33.998C32.332,33.895 32.431,33.844 32.561,33.844M33.591,34.381C33.521,34.381 33.465,34.405 33.424,34.453C33.383,34.501 33.363,34.567 33.363,34.651C33.363,34.734 33.383,34.8 33.424,34.849C33.465,34.897 33.521,34.921 33.591,34.921C33.662,34.921 33.717,34.897 33.758,34.849C33.799,34.8 33.82,34.734 33.82,34.651C33.82,34.567 33.799,34.501 33.758,34.453C33.717,34.405 33.662,34.381 33.591,34.381M33.902,33.89L33.902,34.033C33.863,34.014 33.823,34 33.783,33.99C33.743,33.98 33.704,33.976 33.664,33.976C33.561,33.976 33.482,34.01 33.427,34.08C33.373,34.15 33.342,34.256 33.334,34.397C33.364,34.352 33.403,34.317 33.449,34.294C33.495,34.269 33.545,34.257 33.601,34.257C33.717,34.257 33.809,34.292 33.876,34.363C33.944,34.434 33.978,34.53 33.978,34.651C33.978,34.77 33.942,34.865 33.872,34.937C33.802,35.009 33.708,35.045 33.591,35.045C33.457,35.045 33.355,34.994 33.284,34.891C33.213,34.789 33.178,34.64 33.178,34.445C33.178,34.262 33.221,34.116 33.308,34.007C33.395,33.898 33.512,33.844 33.658,33.844C33.697,33.844 33.737,33.848 33.777,33.855C33.817,33.863 33.859,33.875 33.902,33.89M34.25,33.865L34.865,33.865L34.865,33.997L34.393,33.997L34.393,34.28C34.416,34.273 34.439,34.267 34.461,34.263C34.484,34.259 34.507,34.257 34.53,34.257C34.659,34.257 34.761,34.292 34.837,34.363C34.912,34.434 34.95,34.53 34.95,34.651C34.95,34.776 34.911,34.873 34.834,34.942C34.756,35.011 34.647,35.045 34.506,35.045C34.457,35.045 34.407,35.041 34.357,35.033C34.307,35.024 34.255,35.012 34.201,34.995L34.201,34.838C34.247,34.863 34.295,34.882 34.345,34.894C34.395,34.907 34.447,34.913 34.503,34.913C34.592,34.913 34.663,34.89 34.715,34.843C34.767,34.795 34.793,34.732 34.793,34.651C34.793,34.57 34.767,34.507 34.715,34.459C34.663,34.412 34.592,34.389 34.503,34.389C34.461,34.389 34.419,34.394 34.377,34.403C34.336,34.412 34.293,34.427 34.25,34.446L34.25,33.865M35.725,33.865L36.47,33.865L36.47,33.931L36.05,35.022L35.886,35.022L36.281,33.997L35.725,33.997L35.725,33.865M37.131,34.381C37.06,34.381 37.004,34.405 36.963,34.453C36.922,34.501 36.902,34.567 36.902,34.651C36.902,34.734 36.922,34.8 36.963,34.849C37.004,34.897 37.06,34.921 37.131,34.921C37.201,34.921 37.256,34.897 37.297,34.849C37.339,34.8 37.359,34.734 37.359,34.651C37.359,34.567 37.339,34.501 37.297,34.453C37.256,34.405 37.201,34.381 37.131,34.381M37.441,33.89L37.441,34.033C37.402,34.014 37.362,34 37.322,33.99C37.282,33.98 37.243,33.976 37.203,33.976C37.1,33.976 37.021,34.01 36.966,34.08C36.912,34.15 36.881,34.256 36.873,34.397C36.904,34.352 36.942,34.317 36.988,34.294C37.034,34.269 37.085,34.257 37.14,34.257C37.256,34.257 37.348,34.292 37.415,34.363C37.483,34.434 37.517,34.53 37.517,34.651C37.517,34.77 37.482,34.865 37.411,34.937C37.341,35.009 37.247,35.045 37.131,35.045C36.997,35.045 36.894,34.994 36.823,34.891C36.753,34.789 36.717,34.64 36.717,34.445C36.717,34.262 36.761,34.116 36.847,34.007C36.934,33.898 37.051,33.844 37.197,33.844C37.236,33.844 37.276,33.848 37.316,33.855C37.356,33.863 37.398,33.875 37.441,33.89M37.748,33.865L38.492,33.865L38.492,33.931L38.072,35.022L37.908,35.022L38.304,33.997L37.748,33.997L37.748,33.865M38.803,34.998L38.803,34.856C38.842,34.874 38.882,34.889 38.923,34.898C38.963,34.908 39.002,34.913 39.041,34.913C39.145,34.913 39.223,34.878 39.278,34.809C39.333,34.739 39.364,34.634 39.372,34.492C39.342,34.536 39.304,34.571 39.258,34.594C39.212,34.618 39.161,34.63 39.105,34.63C38.989,34.63 38.897,34.595 38.83,34.525C38.762,34.455 38.729,34.359 38.729,34.238C38.729,34.119 38.764,34.023 38.834,33.952C38.904,33.88 38.998,33.844 39.115,33.844C39.249,33.844 39.351,33.895 39.421,33.998C39.492,34.1 39.527,34.249 39.527,34.445C39.527,34.627 39.484,34.773 39.397,34.882C39.311,34.991 39.195,35.045 39.048,35.045C39.009,35.045 38.969,35.041 38.929,35.033C38.888,35.026 38.847,35.014 38.803,34.998M39.115,34.508C39.185,34.508 39.241,34.483 39.282,34.435C39.323,34.387 39.344,34.321 39.344,34.238C39.344,34.154 39.323,34.089 39.282,34.041C39.241,33.992 39.185,33.968 39.115,33.968C39.045,33.968 38.989,33.992 38.947,34.041C38.907,34.089 38.886,34.154 38.886,34.238C38.886,34.321 38.907,34.387 38.947,34.435C38.989,34.483 39.045,34.508 39.115,34.508M39.814,34.998L39.814,34.856C39.854,34.874 39.893,34.889 39.934,34.898C39.974,34.908 40.014,34.913 40.052,34.913C40.156,34.913 40.235,34.878 40.289,34.809C40.344,34.739 40.375,34.634 40.383,34.492C40.353,34.536 40.315,34.571 40.269,34.594C40.223,34.618 40.172,34.63 40.116,34.63C40,34.63 39.908,34.595 39.841,34.525C39.774,34.455 39.74,34.359 39.74,34.238C39.74,34.119 39.775,34.023 39.845,33.952C39.916,33.88 40.009,33.844 40.126,33.844C40.26,33.844 40.362,33.895 40.432,33.998C40.503,34.1 40.539,34.249 40.539,34.445C40.539,34.627 40.495,34.773 40.408,34.882C40.322,34.991 40.206,35.045 40.059,35.045C40.02,35.045 39.98,35.041 39.94,35.033C39.9,35.026 39.858,35.014 39.814,34.998M40.126,34.508C40.196,34.508 40.252,34.483 40.293,34.435C40.334,34.387 40.355,34.321 40.355,34.238C40.355,34.154 40.334,34.089 40.293,34.041C40.252,33.992 40.196,33.968 40.126,33.968C40.056,33.968 40,33.992 39.959,34.041C39.918,34.089 39.897,34.154 39.897,34.238C39.897,34.321 39.918,34.387 39.959,34.435C40,34.483 40.056,34.508 40.126,34.508" style="fill-rule:nonzero;"/>
        <g transform="matrix(0.580346,0,0,0.580346,19.0443,3.20644)">
            <g id="Layer-11" serif:id="Layer 1">
                <g id="path21642" transform="matrix(1.1738,0,0,0.6,-5.26587,19.575)">
                    <path d="M40.875,36.75C40.875,41.893 33.765,46.125 25.125,46.125C16.485,46.125 9.375,41.893 9.375,36.75C9.375,31.607 16.485,27.375 25.125,27.375C33.765,27.375 40.875,31.607 40.875,36.75Z" style="fill:url(#_Radial17);"/>
                </g>
                <path id="path9480" d="M15.591,0.492L32.676,0.492L45.498,13.586L45.498,31.48L32.849,43.497L15.419,43.497L2.494,30.658L2.494,13.464L15.591,0.492Z" style="fill:url(#_Linear18);stroke:rgb(134,0,0);stroke-width:1px;"/>
                <path id="path9482" d="M16.021,1.5L32.249,1.5L44.496,13.923L44.496,31.037L32.638,42.488L15.87,42.488L3.509,30.209L3.509,13.846L16.021,1.5Z" style="fill:none;stroke:url(#_Linear19);stroke-width:1px;"/>
                <path id="path2241" d="M15.688,0.75L2.75,13.563L2.75,30.563L5.688,33.469C22.45,33.526 22.165,20.45 45.25,21.594L45.25,13.688L32.563,0.75L15.688,0.75Z" style="fill:url(#_Radial20);"/>
                <path id="path2787" d="M16.767,10.5L12.5,14.767L20.035,22.302L12.5,29.837L16.767,34.105L24.302,26.569L31.837,34.105L36.105,29.837L28.569,22.302L36.105,14.767L31.837,10.5L24.302,18.035L16.767,10.5Z" style="fill:url(#_Radial21);stroke:url(#_Linear22);stroke-width:1px;stroke-linecap:round;stroke-linejoin:round;"/>
            </g>
        </g>
    </g>
    <defs>
        <linearGradient id="_Linear1" x1="0" y1="0" x2="1" y2="0" gradientUnits="userSpaceOnUse" gradientTransform="matrix(2.92909e-14,478.357,-478.357,2.92909e-14,-1051.94,-150.697)"><stop offset="0" style="stop-color:black;stop-opacity:0"/><stop offset="0.5" style="stop-color:black;stop-opacity:0.4"/><stop offset="1" style="stop-color:black;stop-opacity:0"/></linearGradient>
        <radialGradient id="_Radial2" cx="0" cy="0" r="1" gradientUnits="userSpaceOnUse" gradientTransform="matrix(325,0,0,230.737,-211.146,85.6679)"><stop offset="0" style="stop-color:black;stop-opacity:0.4"/><stop offset="1" style="stop-color:black;stop-opacity:0"/></radialGradient>
        <radialGradient id="_Radial3" cx="0" cy="0" r="1" gradientUnits="userSpaceOnUse" gradientTransform="matrix(-325,0,0,230.737,-1567.72,85.6679)"><stop offset="0" style="stop-color:black;stop-opacity:0.4"/><stop offset="1" style="stop-color:black;stop-opacity:0"/></radialGradient>
        <linearGradient id="_Linear4" x1="0" y1="0" x2="1" y2="0" gradientUnits="userSpaceOnUse" gradientTransform="matrix(16.8944,24.375,-24.375,16.8944,16.1244,11.75)"><stop offset="0" style="stop-color:white;stop-opacity:1"/><stop offset="1" style="stop-color:rgb(221,221,221);stop-opacity:1"/></linearGradient>
        <radialGradient id="_Radial5" cx="0" cy="0" r="1" gradientUnits="userSpaceOnUse" gradientTransform="matrix(29.993,0,0,29.9937,18.2474,15.7163)"><stop offset="0" style="stop-color:rgb(211,233,255);stop-opacity:1"/><stop offset="0.16" style="stop-color:rgb(211,233,255);stop-opacity:1"/><stop offset="0.75" style="stop-color:rgb(64,116,174);stop-opacity:1"/><stop offset="1" style="stop-color:rgb(54,72,108);stop-opacity:1"/></radialGradient>
        <radialGradient id="_Radial6" cx="0" cy="0" r="1" gradientUnits="userSpaceOnUse" gradientTransform="matrix(42.1911,0,0,39.2475,19.3199,16.8652)"><stop offset="0" style="stop-color:white;stop-opacity:1"/><stop offset="0.38" style="stop-color:rgb(254,254,254);stop-opacity:1"/><stop offset="1" style="stop-color:rgb(29,29,29);stop-opacity:1"/></radialGradient>
        <radialGradient id="_Radial7" cx="0" cy="0" r="1" gradientUnits="userSpaceOnUse" gradientTransform="matrix(42.1911,0,0,39.2475,19.3199,16.8652)"><stop offset="0" style="stop-color:white;stop-opacity:1"/><stop offset="0.38" style="stop-color:rgb(254,254,254);stop-opacity:1"/><stop offset="1" style="stop-color:rgb(29,29,29);stop-opacity:1"/></radialGradient>
        <radialGradient id="_Radial8" cx="0" cy="0" r="1" gradientUnits="userSpaceOnUse" gradientTransform="matrix(42.1911,0,0,39.2475,19.3199,16.8652)"><stop offset="0" style="stop-color:white;stop-opacity:1"/><stop offset="0.38" style="stop-color:rgb(254,254,254);stop-opacity:1"/><stop offset="1" style="stop-color:rgb(29,29,29);stop-opacity:1"/></radialGradient>
        <radialGradient id="_Radial9" cx="0" cy="0" r="1" gradientUnits="userSpaceOnUse" gradientTransform="matrix(42.1911,0,0,39.2475,19.3199,16.8652)"><stop offset="0" style="stop-color:white;stop-opacity:1"/><stop offset="0.38" style="stop-color:rgb(254,254,254);stop-opacity:1"/><stop offset="1" style="stop-color:rgb(29,29,29);stop-opacity:1"/></radialGradient>
        <radialGradient id="_Radial10" cx="0" cy="0" r="1" gradientUnits="userSpaceOnUse" gradientTransform="matrix(42.1911,0,0,39.2475,19.3199,16.8652)"><stop offset="0" style="stop-color:white;stop-opacity:1"/><stop offset="0.38" style="stop-color:rgb(254,254,254);stop-opacity:1"/><stop offset="1" style="stop-color:rgb(29,29,29);stop-opacity:1"/></radialGradient>
        <radialGradient id="_Radial11" cx="0" cy="0" r="1" gradientUnits="userSpaceOnUse" gradientTransform="matrix(42.1911,0,0,39.2475,19.3199,16.8652)"><stop offset="0" style="stop-color:white;stop-opacity:1"/><stop offset="0.38" style="stop-color:rgb(254,254,254);stop-opacity:1"/><stop offset="1" style="stop-color:rgb(29,29,29);stop-opacity:1"/></radialGradient>
        <radialGradient id="_Radial12" cx="0" cy="0" r="1" gradientUnits="userSpaceOnUse" gradientTransform="matrix(42.1911,0,0,39.2475,19.3199,16.8652)"><stop offset="0" style="stop-color:white;stop-opacity:1"/><stop offset="0.38" style="stop-color:rgb(254,254,254);stop-opacity:1"/><stop offset="1" style="stop-color:rgb(29,29,29);stop-opacity:1"/></radialGradient>
        <radialGradient id="_Radial13" cx="0" cy="0" r="1" gradientUnits="userSpaceOnUse" gradientTransform="matrix(42.1911,0,0,39.2475,19.3199,16.8652)"><stop offset="0" style="stop-color:white;stop-opacity:1"/><stop offset="0.38" style="stop-color:rgb(254,254,254);stop-opacity:1"/><stop offset="1" style="stop-color:rgb(29,29,29);stop-opacity:1"/></radialGradient>
        <radialGradient id="_Radial14" cx="0" cy="0" r="1" gradientUnits="userSpaceOnUse" gradientTransform="matrix(42.1911,0,0,39.2475,19.3199,16.8652)"><stop offset="0" style="stop-color:white;stop-opacity:1"/><stop offset="0.38" style="stop-color:rgb(254,254,254);stop-opacity:1"/><stop offset="1" style="stop-color:rgb(29,29,29);stop-opacity:1"/></radialGradient>
        <radialGradient id="_Radial15" cx="0" cy="0" r="1" gradientUnits="userSpaceOnUse" gradientTransform="matrix(42.1911,0,0,39.2475,19.3199,16.8652)"><stop offset="0" style="stop-color:white;stop-opacity:1"/><stop offset="0.38" style="stop-color:rgb(254,254,254);stop-opacity:1"/><stop offset="1" style="stop-color:rgb(29,29,29);stop-opacity:1"/></radialGradient>
        <radialGradient id="_Radial16" cx="0" cy="0" r="1" gradientUnits="userSpaceOnUse" gradientTransform="matrix(43.5262,0,0,43.5272,15.6011,12.1424)"><stop offset="0" style="stop-color:white;stop-opacity:1"/><stop offset="1" style="stop-color:white;stop-opacity:0.16"/></radialGradient>
        <radialGradient id="_Radial17" cx="0" cy="0" r="1" gradientUnits="userSpaceOnUse" gradientTransform="matrix(15.75,0,0,9.375,25.125,36.75)"><stop offset="0" style="stop-color:black;stop-opacity:0.63"/><stop offset="1" style="stop-color:black;stop-opacity:0"/></radialGradient>
        <linearGradient id="_Linear18" x1="0" y1="0" x2="1" y2="0" gradientUnits="userSpaceOnUse" gradientTransform="matrix(17.0519,17.8544,-17.8544,17.0519,23.996,18.1053)"><stop offset="0" style="stop-color:rgb(204,0,0);stop-opacity:1"/><stop offset="1" style="stop-color:rgb(179,0,0);stop-opacity:1"/></linearGradient>
        <linearGradient id="_Linear19" x1="0" y1="0" x2="1" y2="0" gradientUnits="userSpaceOnUse" gradientTransform="matrix(37.8331,34.8707,-34.8707,37.8331,15.737,10.5036)"><stop offset="0" style="stop-color:rgb(255,139,139);stop-opacity:0.81"/><stop offset="1" style="stop-color:rgb(236,27,27);stop-opacity:0.81"/></linearGradient>
        <radialGradient id="_Radial20" cx="0" cy="0" r="1" gradientUnits="userSpaceOnUse" gradientTransform="matrix(88.2928,-6.33081e-23,6.91827e-23,67.9729,16.75,10.6095)"><stop offset="0" style="stop-color:white;stop-opacity:0.29"/><stop offset="1" style="stop-color:white;stop-opacity:0"/></radialGradient>
        <radialGradient id="_Radial21" cx="0" cy="0" r="1" gradientUnits="userSpaceOnUse" gradientTransform="matrix(20.8398,-7.10543e-15,7.10543e-15,20.8398,24.3023,31.3023)"><stop offset="0" style="stop-color:white;stop-opacity:1"/><stop offset="1" style="stop-color:rgb(219,219,219);stop-opacity:1"/></radialGradient>
        <linearGradient id="_Linear22" x1="0" y1="0" x2="1" y2="0" gradientUnits="userSpaceOnUse" gradientTransform="matrix(2.55225,19.25,-19.25,2.55225,21.75,13.8023)"><stop offset="0" style="stop-color:rgb(255,2,2);stop-opacity:1"/><stop offset="1" style="stop-color:rgb(255,155,155);stop-opacity:1"/></linearGradient>
    </defs>
</svg>
