<?xml version="1.0" encoding="UTF-8" standalone="no"?>
<!DOCTYPE svg PUBLIC "-//W3C//DTD SVG 1.1//EN" "http://www.w3.org/Graphics/SVG/1.1/DTD/svg11.dtd">
<svg width="100%" height="100%" viewBox="0 0 48 48" version="1.1" xmlns="http://www.w3.org/2000/svg" xmlns:xlink="http://www.w3.org/1999/xlink" xml:space="preserve" xmlns:serif="http://www.serif.com/" style="fill-rule:evenodd;clip-rule:evenodd;">
    <g id="Layer-1" serif:id="Layer 1">
        <g id="path2258" transform="matrix(0.751118,0,0,0.578703,17.0409,19.3634)">
            <path d="M42.5,39.125C42.5,42.759 34.516,45.75 24.813,45.75C15.109,45.75 7.125,42.759 7.125,39.125C7.125,35.491 15.109,32.5 24.812,32.5C34.516,32.5 42.5,35.491 42.5,39.125Z" style="fill:url(#_Radial1);fill-rule:nonzero;"/>
        </g>
        <g id="path3039" transform="matrix(0.836071,0,0,0.685436,-7.95961,15.7178)">
            <path d="M42.5,39.125C42.5,42.759 34.516,45.75 24.813,45.75C15.109,45.75 7.125,42.759 7.125,39.125C7.125,35.491 15.109,32.5 24.812,32.5C34.516,32.5 42.5,35.491 42.5,39.125Z" style="fill:url(#_Radial2);fill-rule:nonzero;"/>
        </g>
        <path id="path2140" d="M17.907,21.216L36.899,40.647C37.668,41.526 40.103,42.204 41.73,40.647C43.301,39.144 42.937,37.025 41.4,35.488L23.176,15.946C25.426,9.696 20.872,4.446 14.997,5.571L13.735,6.724L17.687,10.457L17.907,13.75L14.956,16.444L11.429,16.056L7.807,12.653L6.536,13.907C5.946,19.549 11.844,24.591 17.907,21.216Z" style="fill:url(#_Linear3);fill-rule:nonzero;stroke:rgb(136,138,133);stroke-width:1px;"/>
        <path id="path3057" d="M18.117,19.94L37.32,39.968C37.915,40.648 39.8,41.173 41.06,39.968C42.276,38.804 41.995,37.163 40.805,35.973L22.313,16.352C23.813,9.852 20.454,6.348 15.454,6.473L15.184,6.746L18.787,9.982L18.917,14.164L15.303,17.462L11.061,17.004L7.885,14.013L7.532,14.443C7.219,20.412 14.024,23.128 18.117,19.94Z" style="fill:none;fill-rule:nonzero;stroke:white;stroke-opacity:0.43;stroke-width:1px;"/>
        <g id="rect3059" transform="matrix(0.697938,0.716158,-0.716158,0.697938,0,0)">
            <path d="M51.454,-1.735L51.454,-1.447C51.454,-0.959 51.058,-0.563 50.57,-0.563L29.069,-0.563C28.581,-0.563 28.185,-0.959 28.185,-1.447L28.185,-1.735C28.185,-2.222 28.581,-2.618 29.069,-2.618L50.57,-2.618C51.058,-2.618 51.454,-2.222 51.454,-1.735Z" style="fill:none;stroke:url(#_Linear4);stroke-width:1px;"/>
        </g>
        <path id="path2144" d="M22.499,30.125C23.332,29.411 35.783,16.677 35.783,16.677L38.857,16.457L43.687,9.76L39.663,6.175L33.405,11.555L33.405,14.629L20.67,27.858C20.066,28.461 21.73,30.784 22.499,30.125Z" style="fill:url(#_Linear5);fill-rule:nonzero;stroke:rgb(135,143,157);stroke-width:1px;"/>
        <path id="path3085" d="M22.402,29.085C23.049,28.531 35.426,15.856 35.426,15.856L38.355,15.608L42.569,9.946L39.679,7.397L34.203,12.114L34.358,14.965L21.682,28.257C21.213,28.726 21.806,29.597 22.402,29.085Z" style="fill:none;fill-rule:nonzero;stroke:url(#_Linear6);stroke-width:1px;"/>
        <path id="path2142" d="M8.465,43.612C9.782,45.077 13.439,45.74 15.061,42.902C15.768,41.664 17.155,38.199 23.342,32.63C24.381,31.696 25.482,29.559 24.549,28.407L22.133,25.991C21.145,24.893 18.399,25.406 17.272,26.942C13.913,31.538 8.426,35.197 7.189,35.639C4.821,36.485 5.087,39.975 6.654,41.635L8.465,43.612Z" style="fill:url(#_Linear7);fill-rule:nonzero;stroke:rgb(32,74,135);stroke-width:1px;"/>
        <g id="path2146" transform="matrix(0.87827,0,0,0.87827,2.4272,5.07746)">
            <path d="M43.25,37.5C43.25,38.254 42.629,38.875 41.875,38.875C41.121,38.875 40.5,38.254 40.5,37.5C40.5,36.746 41.121,36.125 41.875,36.125C42.629,36.125 43.25,36.746 43.25,37.5Z" style="fill:white;fill-rule:nonzero;stroke:rgb(161,161,161);stroke-width:1.14px;"/>
        </g>
        <g id="path3101" transform="matrix(0.570876,0,0,0.570876,9.15485,11.2511)">
            <path d="M20.771,28.201C20.771,29.171 19.973,29.969 19.003,29.969C18.034,29.969 17.236,29.171 17.236,28.201C17.236,27.231 18.034,26.433 19.003,26.433C19.973,26.433 20.771,27.231 20.771,28.201Z" style="fill:white;fill-opacity:0.6;fill-rule:nonzero;"/>
        </g>
        <path id="path3103" d="M18.679,29.625C18.679,29.625 11.509,36.924 8.15,38.162" style="fill:none;fill-rule:nonzero;stroke:url(#_Linear8);stroke-width:2.29px;stroke-linecap:round;stroke-linejoin:round;"/>
        <path id="path2270" d="M8.806,42.487C10.247,44.232 13.406,44.648 14.397,42.116C15.078,40.377 17.731,36.45 22.595,32.073C23.412,31.338 24.277,29.658 23.543,28.752L21.645,26.854C20.868,25.99 18.709,26.393 17.823,27.601C15.183,31.214 9.34,35.941 7.927,36.407C5.741,37.128 6.15,39.628 7.382,40.933L8.806,42.487Z" style="fill:none;fill-rule:nonzero;stroke:white;stroke-opacity:0.2;stroke-width:1px;"/>
        <path id="path2247" d="M20.825,31.261C20.825,31.261 13.502,37.878 11.911,42.121" style="fill:none;fill-rule:nonzero;stroke:url(#_Linear9);stroke-width:2.29px;stroke-linecap:round;stroke-linejoin:round;"/>
    </g>
    <defs>
        <radialGradient id="_Radial1" cx="0" cy="0" r="1" gradientUnits="userSpaceOnUse" gradientTransform="matrix(17.6875,0,0,6.62499,24.8125,39.125)"><stop offset="0" style="stop-color:black;stop-opacity:0.37"/><stop offset="1" style="stop-color:black;stop-opacity:0"/></radialGradient>
        <radialGradient id="_Radial2" cx="0" cy="0" r="1" gradientUnits="userSpaceOnUse" gradientTransform="matrix(17.6875,0,0,6.62499,24.8125,39.125)"><stop offset="0" style="stop-color:black;stop-opacity:0.56"/><stop offset="1" style="stop-color:black;stop-opacity:0"/></radialGradient>
        <linearGradient id="_Linear3" x1="0" y1="0" x2="1" y2="0" gradientUnits="userSpaceOnUse" gradientTransform="matrix(0.863236,-31.1591,31.1591,0.863236,19.7935,42.0778)"><stop offset="0" style="stop-color:rgb(182,182,182);stop-opacity:1"/><stop offset="0.5" style="stop-color:rgb(242,242,242);stop-opacity:1"/><stop offset="0.68" style="stop-color:rgb(250,250,250);stop-opacity:1"/><stop offset="0.84" style="stop-color:rgb(216,216,216);stop-opacity:1"/><stop offset="0.88" style="stop-color:rgb(242,242,242);stop-opacity:1"/><stop offset="1" style="stop-color:rgb(219,219,219);stop-opacity:1"/></linearGradient>
        <linearGradient id="_Linear4" x1="0" y1="0" x2="1" y2="0" gradientUnits="userSpaceOnUse" gradientTransform="matrix(-21.8354,-0.586524,0.586524,-21.8354,49.3761,-1.54003)"><stop offset="0" style="stop-color:white;stop-opacity:0.17"/><stop offset="1" style="stop-color:black;stop-opacity:0.17"/></linearGradient>
        <linearGradient id="_Linear5" x1="0" y1="0" x2="1" y2="0" gradientUnits="userSpaceOnUse" gradientTransform="matrix(-0.608012,-6.125,6.125,-0.608012,36.4217,17.5354)"><stop offset="0" style="stop-color:rgb(152,160,169);stop-opacity:1"/><stop offset="1" style="stop-color:rgb(195,208,221);stop-opacity:1"/></linearGradient>
        <linearGradient id="_Linear6" x1="0" y1="0" x2="1" y2="0" gradientUnits="userSpaceOnUse" gradientTransform="matrix(9.68177,-10.1647,10.1647,9.68177,31.1774,19.8215)"><stop offset="0" style="stop-color:white;stop-opacity:0.54"/><stop offset="1" style="stop-color:white;stop-opacity:0"/></linearGradient>
        <linearGradient id="_Linear7" x1="0" y1="0" x2="1" y2="0" gradientUnits="userSpaceOnUse" gradientTransform="matrix(6.29278,6.28794,-6.28794,6.29278,11.1004,33.3215)"><stop offset="0" style="stop-color:rgb(52,101,164);stop-opacity:1"/><stop offset="0" style="stop-color:rgb(159,188,225);stop-opacity:1"/><stop offset="0" style="stop-color:rgb(107,149,202);stop-opacity:1"/><stop offset="0.75" style="stop-color:rgb(61,106,165);stop-opacity:1"/><stop offset="1" style="stop-color:rgb(56,110,180);stop-opacity:1"/></linearGradient>
        <linearGradient id="_Linear8" x1="0" y1="0" x2="1" y2="0" gradientUnits="userSpaceOnUse" gradientTransform="matrix(-1.42945,-2.47589,2.47589,-1.42945,14.6261,35.71)"><stop offset="0" style="stop-color:white;stop-opacity:1"/><stop offset="1" style="stop-color:white;stop-opacity:0"/></linearGradient>
        <linearGradient id="_Linear9" x1="0" y1="0" x2="1" y2="0" gradientUnits="userSpaceOnUse" gradientTransform="matrix(1.25077,1.13998,-1.13998,1.25077,15.1125,36.2643)"><stop offset="0" style="stop-color:black;stop-opacity:0.28"/><stop offset="1" style="stop-color:black;stop-opacity:0"/></linearGradient>
    </defs>
</svg>
