<?xml version="1.0" encoding="UTF-8" standalone="no"?>
<!DOCTYPE svg PUBLIC "-//W3C//DTD SVG 1.1//EN" "http://www.w3.org/Graphics/SVG/1.1/DTD/svg11.dtd">
<svg width="100%" height="100%" viewBox="0 0 48 48" version="1.1" xmlns="http://www.w3.org/2000/svg" xmlns:xlink="http://www.w3.org/1999/xlink" xml:space="preserve" xmlns:serif="http://www.serif.com/" style="fill-rule:evenodd;clip-rule:evenodd;">
    <g id="Layer-1" serif:id="Layer 1">
        <g id="g5022" transform="matrix(0.0241141,0,0,0.019292,45.4895,39.7523)">
            <rect id="rect4173" x="-1559.25" y="-150.697" width="1339.63" height="478.357" style="fill:url(#_Linear1);"/>
            <path id="path5058" d="M-219.619,-150.68L-219.619,327.65C-76.745,328.551 125.781,220.481 125.781,88.454C125.781,-43.572 -33.655,-150.68 -219.619,-150.68Z" style="fill:url(#_Radial2);fill-rule:nonzero;"/>
            <path id="path5018" d="M-1559.25,-150.68L-1559.25,327.65C-1702.13,328.551 -1904.65,220.481 -1904.65,88.454C-1904.65,-43.572 -1745.22,-150.68 -1559.25,-150.68Z" style="fill:url(#_Radial3);fill-rule:nonzero;"/>
        </g>
        <path id="rect4652" d="M43.188,37.712L43.188,40.726C43.188,41.671 42.421,42.438 41.476,42.438L6.462,42.438C5.517,42.438 4.75,41.671 4.75,40.726L4.75,37.712C4.75,36.767 5.517,36 6.462,36L41.476,36C42.421,36 43.188,36.767 43.188,37.712Z" style="fill:url(#_Linear4);stroke:rgb(89,89,89);stroke-width:1px;"/>
        <path id="rect4609" d="M7.131,21.5L40.871,21.5C41.256,21.5 41.748,21.788 42.051,22.224C42.354,22.66 43.788,24.834 44.109,25.298C44.431,25.762 44.502,26.202 44.502,26.774L44.502,38.851C44.502,39.765 43.77,40.5 42.861,40.5L5.14,40.5C4.231,40.5 3.499,39.765 3.499,38.851L3.499,26.774C3.499,26.28 3.6,25.572 3.946,25.121C4.381,24.552 5.55,22.573 5.858,22.153C6.166,21.733 6.732,21.5 7.131,21.5Z" style="fill:url(#_Linear5);fill-rule:nonzero;stroke:rgb(103,103,103);stroke-width:1px;"/>
        <path id="path4718" d="M7.747,22C7.254,22 6.62,22.131 6.36,22.533L4.54,25.347C4.247,25.8 4.574,26.868 5.455,26.868L42.364,26.868C43.556,26.868 43.56,25.863 43.279,25.435L41.546,22.797C41.231,22.318 41.117,22 40.332,22L7.747,22Z" style="fill:rgb(251,251,251);"/>
        <path id="path4750" d="M7.6,22.473L40.375,22.473C40.74,22.473 41.206,22.745 41.494,23.157C41.782,23.569 42.788,25.184 43.093,25.623C43.399,26.061 43.528,26.477 43.528,27.018L43.528,38.282C43.528,39.146 43.395,39.529 42.533,39.529L5.531,39.529C4.668,39.529 4.473,39.146 4.473,38.282L4.473,27.018C4.473,26.551 4.693,25.881 5.02,25.455C5.433,24.917 6.101,23.487 6.393,23.09C6.686,22.693 7.222,22.473 7.6,22.473Z" style="fill:none;fill-rule:nonzero;stroke:url(#_Linear6);stroke-width:0.95px;"/>
        <path id="rect15391" d="M11.672,4.51L36.313,4.51C36.964,4.51 37.488,5.02 37.488,5.653L37.488,24.348L10.498,24.348L10.498,5.653C10.498,5.02 11.022,4.51 11.672,4.51Z" style="fill:url(#_Linear7);fill-rule:nonzero;stroke:rgb(137,137,137);stroke-width:1px;stroke-linecap:round;"/>
        <path id="rect15660" d="M36.452,5.676L36.452,24.159C36.452,24.256 36.373,24.336 36.275,24.336L11.674,24.336C11.577,24.336 11.498,24.256 11.498,24.159L11.498,5.676C11.498,5.578 11.577,5.499 11.674,5.499L36.275,5.499C36.373,5.499 36.452,5.578 36.452,5.676Z" style="fill:none;stroke:url(#_Linear8);stroke-width:1px;stroke-linecap:round;stroke-linejoin:round;"/>
        <path id="rect4678" d="M40.625,29.087L40.625,30.851C40.625,31.796 39.858,32.563 38.913,32.563L8.587,32.563C7.642,32.563 6.875,31.796 6.875,30.851L6.875,29.087C6.875,28.142 7.642,27.375 8.587,27.375L38.913,27.375C39.858,27.375 40.625,28.142 40.625,29.087Z" style="fill:url(#_Linear9);stroke:url(#_Linear10);stroke-width:1px;"/>
        <g id="path4696" transform="matrix(1,0,0,1,0,2)">
            <path d="M10.872,27.626C10.872,28.33 10.293,28.908 9.59,28.908C8.887,28.908 8.309,28.33 8.309,27.626C8.309,26.923 8.887,26.345 9.59,26.345C10.293,26.345 10.872,26.923 10.872,27.626Z" style="fill:url(#_Radial11);fill-rule:nonzero;"/>
        </g>
        <path id="path4731" d="M11.744,25.416L37.306,25.479C37.994,25.48 38.294,25.108 38.244,24.479L38.119,22.916L39.985,22.916C40.797,22.916 40.975,23.109 41.172,23.479L41.672,24.416C42.199,25.404 43.484,26.39 42.17,26.39C37.668,26.39 13.994,26.041 11.744,25.416Z" style="fill:url(#_Linear12);"/>
        <path id="path4760" d="M42.938,26.75L4.813,26.75" style="fill:none;stroke:white;stroke-width:1px;stroke-linecap:round;stroke-linejoin:round;"/>
        <g id="g4849" transform="matrix(1,0,0,1,0,2)">
            <g opacity="0.44">
                <rect id="rect4831" x="14" y="5" width="19" height="1" style="fill-opacity:0.29;"/>
                <rect id="rect4833" x="14" y="7" width="19" height="1" style="fill-opacity:0.29;"/>
                <rect id="rect4835" x="14" y="9" width="19" height="1" style="fill-opacity:0.29;"/>
                <rect id="rect4837" x="14" y="11" width="19" height="1" style="fill-opacity:0.29;"/>
                <rect id="rect4839" x="14" y="13" width="11" height="1" style="fill-opacity:0.29;"/>
                <rect id="rect4843" x="14" y="17" width="19" height="1" style="fill-opacity:0.29;"/>
                <rect id="rect4845" x="14" y="19" width="19" height="1" style="fill-opacity:0.29;"/>
            </g>
        </g>
        <g transform="matrix(0.37593,0,0,0.387532,0.77674,-0.933004)">
            <path d="M86.42,8.847C94.881,6.736 86.806,35.706 75.762,57.336C64.792,78.819 52.269,95.822 39.434,99.06C35.287,100.107 29.611,97.45 30.998,94.8C36.235,84.783 63.291,79.901 72.386,78.352C85.522,76.114 113.69,71.665 115.979,77.211C117.394,80.641 114.021,83.455 111.402,84.362C104.668,86.694 97.071,68.854 92.34,57.142C87.609,45.43 75.461,11.583 86.42,8.847Z" style="fill:white;fill-opacity:0;"/>
            <path d="M63.905,82.944C58.671,90.079 53.065,95.85 47.445,99.142C41.368,102.703 36.523,103.509 31.65,101.178C30.159,100.464 25.516,97.533 28.421,92.733C30.633,89.08 36.257,83.025 59.914,77.829C64.136,72.134 69.023,64.473 74.403,54.184C77.882,47.53 80.87,40.735 83.199,34.526C81.337,27.008 80.164,19.462 81.092,14.372C82.125,8.704 85.406,8.114 86.162,7.874L86.155,7.847C86.581,7.778 93.447,5.32 90.57,21.852C89.791,26.324 88.512,31.356 86.821,36.664C87.223,37.997 87.664,39.395 88.148,40.864C91.174,50.051 96.378,63.137 101.314,72.145C114.683,71.606 119.013,74.049 118.669,79.197C118.367,83.721 112.348,88.27 107.654,86.219C105.934,85.468 103.383,84.004 99.518,77.336C89.132,78.165 75.129,80.446 63.905,82.944ZM53.586,85.544C52.74,85.791 51.942,86.037 51.199,86.279C39.608,90.056 36.038,93.275 34.496,95.382C37.005,96.842 40.316,95.707 43.467,93.953C44.062,93.621 47.72,91.912 53.586,85.544ZM85.146,41.633C81.047,53.182 75.227,65.577 68.545,76.124C74.055,75.143 80.332,74.21 87.491,73.35C90.968,72.932 94.097,72.618 96.906,72.406C94.838,68.189 92.464,62.638 89.734,55.298C88.451,51.848 86.734,46.963 85.146,41.633ZM86.684,9.801L86.689,9.818C86.561,9.863 80.216,10.007 84.921,29.69C88.531,18.959 89.771,10.851 87.608,9.853C87.321,9.72 86.986,9.789 86.684,9.801ZM104.261,77.053C106.787,80.809 109.095,82.938 110.811,82.221C112.407,81.555 114.435,79.937 113.825,78.238C113.807,78.189 113.736,78.135 113.767,78.092C113.768,78.091 113.769,78.089 113.77,78.088C113.745,78.087 113.714,78.076 113.673,78.048C112.372,77.16 108.94,76.885 104.261,77.053ZM113.874,78.039C113.928,78.027 113.985,78.018 114.014,77.978C113.949,77.991 113.908,78.016 113.874,78.039Z" style="fill:rgb(255,0,0);"/>
        </g>
    </g>
    <defs>
        <linearGradient id="_Linear1" x1="0" y1="0" x2="1" y2="0" gradientUnits="userSpaceOnUse" gradientTransform="matrix(2.92909e-14,478.357,-478.357,2.92909e-14,-1051.94,-150.697)"><stop offset="0" style="stop-color:black;stop-opacity:0"/><stop offset="0.5" style="stop-color:black;stop-opacity:0.4"/><stop offset="1" style="stop-color:black;stop-opacity:0"/></linearGradient>
        <radialGradient id="_Radial2" cx="0" cy="0" r="1" gradientUnits="userSpaceOnUse" gradientTransform="matrix(325,0,0,230.737,-211.146,85.6679)"><stop offset="0" style="stop-color:black;stop-opacity:0.4"/><stop offset="1" style="stop-color:black;stop-opacity:0"/></radialGradient>
        <radialGradient id="_Radial3" cx="0" cy="0" r="1" gradientUnits="userSpaceOnUse" gradientTransform="matrix(-325,0,0,230.737,-1567.72,85.6679)"><stop offset="0" style="stop-color:black;stop-opacity:0.4"/><stop offset="1" style="stop-color:black;stop-opacity:0"/></radialGradient>
        <linearGradient id="_Linear4" x1="0" y1="0" x2="1" y2="0" gradientUnits="userSpaceOnUse" gradientTransform="matrix(39.4375,0,0,39.4375,4.25,39.2188)"><stop offset="0" style="stop-color:rgb(142,141,135);stop-opacity:1"/><stop offset="0.28" style="stop-color:rgb(203,201,193);stop-opacity:1"/><stop offset="1" style="stop-color:rgb(142,141,135);stop-opacity:1"/></linearGradient>
        <linearGradient id="_Linear5" x1="0" y1="0" x2="1" y2="0" gradientUnits="userSpaceOnUse" gradientTransform="matrix(39.2509,0,0,39.2509,4.31844,40.3438)"><stop offset="0" style="stop-color:rgb(220,220,218);stop-opacity:1"/><stop offset="1" style="stop-color:rgb(186,185,183);stop-opacity:1"/></linearGradient>
        <linearGradient id="_Linear6" x1="0" y1="0" x2="1" y2="0" gradientUnits="userSpaceOnUse" gradientTransform="matrix(0.148799,17.5555,-17.5555,0.148799,23.0195,23.7853)"><stop offset="0" style="stop-color:white;stop-opacity:0.12"/><stop offset="0.1" style="stop-color:white;stop-opacity:1"/><stop offset="1" style="stop-color:white;stop-opacity:0"/></linearGradient>
        <linearGradient id="_Linear7" x1="0" y1="0" x2="1" y2="0" gradientUnits="userSpaceOnUse" gradientTransform="matrix(-0.252396,23.1969,-23.1969,-0.252396,23.7404,8.06194)"><stop offset="0" style="stop-color:rgb(224,224,224);stop-opacity:1"/><stop offset="0.41" style="stop-color:white;stop-opacity:1"/><stop offset="0.53" style="stop-color:rgb(205,205,205);stop-opacity:1"/><stop offset="1" style="stop-color:rgb(73,73,73);stop-opacity:1"/></linearGradient>
        <linearGradient id="_Linear8" x1="0" y1="0" x2="1" y2="0" gradientUnits="userSpaceOnUse" gradientTransform="matrix(-0.0639304,-4.95306,4.95306,-0.0639304,24.7313,23.4934)"><stop offset="0" style="stop-color:white;stop-opacity:0"/><stop offset="1" style="stop-color:rgb(248,248,248);stop-opacity:1"/></linearGradient>
        <linearGradient id="_Linear9" x1="0" y1="0" x2="1" y2="0" gradientUnits="userSpaceOnUse" gradientTransform="matrix(2.71717e-16,-4.43748,4.43748,2.71717e-16,24.5,29.2812)"><stop offset="0" style="stop-color:rgb(247,246,245);stop-opacity:1"/><stop offset="1" style="stop-color:rgb(247,246,245);stop-opacity:0"/></linearGradient>
        <linearGradient id="_Linear10" x1="0" y1="0" x2="1" y2="0" gradientUnits="userSpaceOnUse" gradientTransform="matrix(-0.0625042,-3.56248,3.56248,-0.0625042,23.0625,31.8437)"><stop offset="0" style="stop-color:rgb(102,102,102);stop-opacity:1"/><stop offset="1" style="stop-color:black;stop-opacity:0"/></linearGradient>
        <radialGradient id="_Radial11" cx="0" cy="0" r="1" gradientUnits="userSpaceOnUse" gradientTransform="matrix(2.1227,0,0,2.1227,9.12955,26.9256)"><stop offset="0" style="stop-color:rgb(255,255,253);stop-opacity:1"/><stop offset="0.5" style="stop-color:rgb(187,187,185);stop-opacity:1"/><stop offset="1" style="stop-color:black;stop-opacity:1"/></radialGradient>
        <linearGradient id="_Linear12" x1="0" y1="0" x2="1" y2="0" gradientUnits="userSpaceOnUse" gradientTransform="matrix(0.119214,5.35216,-5.35216,0.119214,27.9787,23.5281)"><stop offset="0" style="stop-color:black;stop-opacity:0.09"/><stop offset="1" style="stop-color:black;stop-opacity:0"/></linearGradient>
    </defs>
</svg>
