<?xml version="1.0" encoding="UTF-8" standalone="no"?>
<!DOCTYPE svg PUBLIC "-//W3C//DTD SVG 1.1//EN" "http://www.w3.org/Graphics/SVG/1.1/DTD/svg11.dtd">
<svg width="100%" height="100%" viewBox="0 0 700 600" version="1.1" xmlns="http://www.w3.org/2000/svg" xmlns:xlink="http://www.w3.org/1999/xlink" xml:space="preserve" xmlns:serif="http://www.serif.com/" style="fill-rule:evenodd;clip-rule:evenodd;">
    <g transform="matrix(2.25761,0,0,2.38623,-143.925,-686.479)">
        <ellipse cx="219.501" cy="507.642" rx="155.031" ry="29.823" style="fill:url(#_Radial1);"/>
    </g>
    <g id="layer3" transform="matrix(1.06456,0,0,1.06456,-56.0616,-105.8)">
        <path d="M60.584,474.54L103.705,430.421C108.636,435.74 113.789,440.615 119.1,445.175L353.808,193.931L336.417,143.753L386.31,120.375L429.36,155.442L406.267,192.505L639.549,443.393C644.721,439.687 649.827,435.39 654.731,429.28L697.923,472.615C503.405,653.423 242.555,642.142 60.584,474.54ZM404.402,170.147C404.402,157.906 394.107,147.971 381.42,147.971C368.734,147.971 358.439,157.906 358.439,170.147C358.439,182.388 368.734,192.323 381.42,192.323C394.107,192.323 404.402,182.388 404.402,170.147ZM230.708,361.758L138.437,460.445C175.575,487.707 216.423,510.44 264.826,524.291L298.587,398.52C271.343,389.206 249.364,376.441 230.708,361.758ZM492.059,525.004C528.548,513.499 563.744,500.939 620.394,458.736L524.3,355.665C504.712,373.053 482.373,386.232 457.409,395.555L492.059,525.004ZM247.522,343.709C262.916,355.279 281.072,366.648 304.801,375.01L339.89,244.989L247.522,343.709ZM288.803,531.088C343.108,543.747 402.663,546.696 468.458,531.054L433.96,403.191C396.585,413.447 359.296,413.471 322.457,405.457L288.803,531.088ZM415.702,239.411L451.207,371.529C471.581,362.536 490.574,351.9 507.522,337.554L415.702,239.411ZM328.903,381.671C358.265,387.699 389.769,389.686 427.484,379.504L404.49,293.948L362.167,258.244L328.903,381.671Z" style="fill:rgb(97,148,203);stroke:rgb(57,54,51);stroke-width:0.71px;"/>
    </g>
    <g transform="matrix(1.29307,0,0,1.24606,-90.259,-109.681)">
        <path d="M158.566,88.022C158.566,97.416 170.785,141.531 179.042,149.788C187.3,158.046 231.412,170.264 240.808,170.264C231.414,170.264 187.299,182.483 179.042,190.74C170.784,198.998 158.566,243.11 158.566,252.505C158.566,243.112 146.347,198.997 138.09,190.74C129.832,182.482 85.72,170.264 76.325,170.264C85.718,170.264 129.833,158.045 138.09,149.788C146.348,141.53 158.566,97.418 158.566,88.022Z" style="fill:url(#_Radial2);"/>
    </g>
    <g id="layer4" transform="matrix(1,0,0,1,-29,-79)">
        <g id="rect13853" transform="matrix(1.06456,0,0,1.15793,-25.0616,-70.9523)">
            <rect x="321.307" y="602.906" width="117.176" height="41.339" style="fill:rgb(65,65,65);stroke:rgb(31,26,23);stroke-width:1px;stroke-linejoin:round;"/>
        </g>
        <g id="rect13855" transform="matrix(1.06456,0,0,1.06456,-31.0074,-27.0074)">
            <rect x="358.37" y="212.89" width="49.18" height="401.42" style="fill:rgb(65,65,65);stroke:rgb(31,26,23);stroke-width:1px;stroke-linejoin:round;"/>
        </g>
        <g id="path13857" transform="matrix(0.720168,0,0,0.791555,100.1,16.1742)">
            <path d="M457.219,174.38C457.219,209.434 426.061,237.883 387.669,237.883C349.277,237.883 318.118,209.434 318.118,174.38C318.118,139.327 349.277,110.878 387.669,110.878C426.061,110.878 457.219,139.327 457.219,174.38Z" style="fill:none;fill-rule:nonzero;stroke:rgb(31,26,23);stroke-width:45.12px;stroke-linejoin:round;"/>
        </g>
    </g>
    <g id="rect15802" transform="matrix(0.989929,-0.391575,0.391535,0.989945,-56.0616,-105.8)">
        <g id="layer5">
            <rect id="rect158021" serif:id="rect15802" x="117.019" y="303.568" width="35.485" height="127.3" style="stroke:rgb(31,26,23);stroke-width:1px;stroke-linejoin:round;"/>
        </g>
    </g>
    <g id="rect16773" transform="matrix(1.06456,0,0,1.06456,-56.0616,-105.8)">
        <g id="layer6">
            <path id="rect167731" serif:id="rect16773" d="M439.053,255.085L594.147,255.085C599.201,255.085 603.27,259.154 603.27,264.208L603.27,299.56C603.27,304.614 599.201,308.683 594.147,308.683L439.053,308.683C433.999,308.683 429.93,304.614 429.93,299.56L429.93,264.208C429.93,259.154 433.999,255.085 439.053,255.085Z" style="fill:rgb(31,26,23);fill-rule:nonzero;stroke:rgb(31,26,23);stroke-width:1px;stroke-linejoin:round;"/>
        </g>
    </g>
    <defs>
        <radialGradient id="_Radial1" cx="0" cy="0" r="1" gradientUnits="userSpaceOnUse" gradientTransform="matrix(0.0896578,29.8229,-150.741,0.279272,223.79,507.642)"><stop offset="0" style="stop-color:black;stop-opacity:0.545098"/><stop offset="0.49" style="stop-color:black;stop-opacity:0.403922"/><stop offset="1" style="stop-color:black;stop-opacity:0"/></radialGradient>
        <radialGradient id="_Radial2" cx="0" cy="0" r="1" gradientUnits="userSpaceOnUse" gradientTransform="matrix(78.2164,0,-0,78.2164,158.566,170.264)"><stop offset="0" style="stop-color:white;stop-opacity:1"/><stop offset="0.44" style="stop-color:rgb(255,242,116);stop-opacity:1"/><stop offset="1" style="stop-color:rgb(255,239,80);stop-opacity:1"/></radialGradient>
    </defs>
</svg>
