<?xml version="1.0" encoding="UTF-8" standalone="no"?>
<!DOCTYPE svg PUBLIC "-//W3C//DTD SVG 1.1//EN" "http://www.w3.org/Graphics/SVG/1.1/DTD/svg11.dtd">
<svg width="100%" height="100%" viewBox="0 0 96 96" version="1.1" xmlns="http://www.w3.org/2000/svg" xmlns:xlink="http://www.w3.org/1999/xlink" xml:space="preserve" xmlns:serif="http://www.serif.com/" style="fill-rule:evenodd;clip-rule:evenodd;stroke-linejoin:round;stroke-miterlimit:2;">
    <g>
        <g id="rect2419-9" opacity="0.6">
            <path d="M90,12L90,84C90,87.311 87.311,90 84,90L12,90C8.689,90 6,87.311 6,84L6,12C6,8.689 8.689,6 12,6L84,6C87.311,6 90,8.689 90,12Z"/>
            <path d="M90,12L90,84C90,87.311 87.311,90 84,90L12,90C8.689,90 6,87.311 6,84L6,12C6,8.689 8.689,6 12,6L84,6C87.311,6 90,8.689 90,12Z"/>
        </g>
        <g transform="matrix(0.854501,0,0,0.828743,-12.1885,-17.267)">
            <path d="M39.915,33.798C39.915,35.404 41.781,43.493 42.9,44.704C43.993,45.887 51.53,47.935 52.976,47.935C51.492,47.935 44.018,49.955 42.9,51.166C41.806,52.349 39.915,60.507 39.915,62.072C39.915,60.466 38.048,52.377 36.93,51.166C35.836,49.983 28.299,47.935 26.853,47.935C28.337,47.935 35.811,45.915 36.93,44.704C38.023,43.521 39.915,35.363 39.915,33.798Z" style="fill:rgb(235,235,235);"/>
            <path d="M39.915,33.798C39.915,35.404 41.781,43.493 42.9,44.704C43.993,45.887 51.53,47.935 52.976,47.935C51.492,47.935 44.018,49.955 42.9,51.166C41.806,52.349 39.915,60.507 39.915,62.072C39.915,60.466 38.048,52.377 36.93,51.166C35.836,49.983 28.299,47.935 26.853,47.935C28.337,47.935 35.811,45.915 36.93,44.704C38.023,43.521 39.915,35.363 39.915,33.798Z" style="fill:rgb(235,235,235);"/>
        </g>
        <g id="layer6">
            <g transform="matrix(2.16684,0,0,2.10153,-38.4887,-52.7367)">
                <path d="M39.915,33.798C39.915,35.652 41.234,43.484 42.025,43.978C42.798,44.461 49.78,41.77 51.226,40.866C49.742,41.794 44.136,46.946 44.136,47.935C44.136,48.901 49.78,54.1 51.226,55.004C49.742,54.076 42.816,51.398 42.025,51.892C41.252,52.375 39.915,60.265 39.915,62.072C39.915,60.218 38.595,52.386 37.804,51.892C37.031,51.409 30.049,54.1 28.603,55.004C30.087,54.076 35.693,48.924 35.693,47.935C35.693,46.969 30.049,41.77 28.603,40.866C30.087,41.794 37.013,44.472 37.804,43.978C38.577,43.495 39.915,35.605 39.915,33.798Z" style="fill:rgb(235,235,235);"/>
                <path d="M39.915,33.798C39.915,35.652 41.234,43.484 42.025,43.978C42.798,44.461 49.78,41.77 51.226,40.866C49.742,41.794 44.136,46.946 44.136,47.935C44.136,48.901 49.78,54.1 51.226,55.004C49.742,54.076 42.816,51.398 42.025,51.892C41.252,52.375 39.915,60.265 39.915,62.072C39.915,60.218 38.595,52.386 37.804,51.892C37.031,51.409 30.049,54.1 28.603,55.004C30.087,54.076 35.693,48.924 35.693,47.935C35.693,46.969 30.049,41.77 28.603,40.866C30.087,41.794 37.013,44.472 37.804,43.978C38.577,43.495 39.915,35.605 39.915,33.798Z" style="fill:rgb(235,235,235);"/>
            </g>
            <g transform="matrix(0.854501,0,0,0.828743,44.7321,8.27416)">
                <path d="M39.915,33.798C39.915,35.404 41.781,43.493 42.9,44.704C43.993,45.887 51.53,47.935 52.976,47.935C51.492,47.935 44.018,49.955 42.9,51.166C41.806,52.349 39.915,60.507 39.915,62.072C39.915,60.466 38.048,52.377 36.93,51.166C35.836,49.983 28.299,47.935 26.853,47.935C28.337,47.935 35.811,45.915 36.93,44.704C38.023,43.521 39.915,35.363 39.915,33.798Z" style="fill:rgb(235,235,235);"/>
                <path d="M39.915,33.798C39.915,35.404 41.781,43.493 42.9,44.704C43.993,45.887 51.53,47.935 52.976,47.935C51.492,47.935 44.018,49.955 42.9,51.166C41.806,52.349 39.915,60.507 39.915,62.072C39.915,60.466 38.048,52.377 36.93,51.166C35.836,49.983 28.299,47.935 26.853,47.935C28.337,47.935 35.811,45.915 36.93,44.704C38.023,43.521 39.915,35.363 39.915,33.798Z" style="fill:rgb(235,235,235);"/>
            </g>
        </g>
    </g>
</svg>
